<?xml version="1.0" standalone="yes"?>
<svg xmlns="http://www.w3.org/2000/svg" width="682" height="682">
<path style="fill:#010101; stroke:none;" d="M0 0L0 682L682 682L682 0L0 0z"/>
<path style="fill:#a3a3a3; stroke:none;" d="M122 140C128.742 165.211 128 188.875 128 215C128 241.418 128.823 265.488 122 291L175 291C171.01 275.955 167.635 262.849 169.059 247.015C169.708 239.788 181.078 238.852 185.582 243.318C192.881 250.555 195.285 268.373 198.494 278C199.674 281.542 200.416 287.658 203.649 289.972C206.806 292.233 213.315 291 217 291L252 291L239.018 266L225 230C230.857 224.86 240.762 217.544 244.157 210.482C246.417 205.779 245 198.112 245 193C245 185.91 246.865 175.695 244.397 169C241.468 161.056 223.944 143.532 216 140.603C208.025 137.663 195.467 140 187 140L122 140M252 140C271.853 187.684 287.414 240.463 299 291L325.437 289.972L332.718 269L349 212L350 212C352.427 229.932 360.287 247.486 364.779 265C366.475 271.612 367.762 284.147 372.164 289.397C374.938 292.705 395.028 292.479 398.437 289.972C401.221 287.925 401.961 282.131 402.859 279C405.632 269.326 408.544 259.685 411.271 250C419.541 220.623 427.696 191.099 436.888 162C439.292 154.391 443.883 147.742 446 140L398 140C401.916 161.094 394.3 184.127 387 204L373.735 160L368.015 141.603L350 140L335.513 141.028L329.421 158L316 206L315 206L303.325 159L305 140L252 140z"/>
<path style="fill:#787878; stroke:none;" d="M446 140L447 141L446 140z"/>
<path style="fill:#a3a3a3; stroke:none;" d="M560 246C545.781 248.13 530.766 259.581 516 253.648C495.834 245.545 499 227.263 499 209C499 199.063 497.986 188.407 507.043 181.753C524.276 169.094 540.203 181.975 558 185C554.133 174.473 551.194 163.596 547.495 153C546.38 149.809 545.181 143.123 542.412 141.028C537.68 137.447 523.795 140 518 140C507.971 140 494.863 137.746 485.171 140.314C481.295 141.341 478.371 145.398 475.69 148.144C469.479 154.508 459.145 161.446 455.09 169.325C451.84 175.637 454 187.03 454 194L454 238C454 244.811 452.642 253.305 454.419 259.907C455.832 265.157 462.281 269.615 466 273.333C471.072 278.405 477.027 287.037 483.518 290.157C492.207 294.333 509.396 291 519 291C525.115 291 539.392 293.646 544.44 289.972C547.492 287.751 548.374 281.396 549.506 278C553.043 267.391 557.112 256.801 560 246z"/>
<path style="fill:#787878; stroke:none;" d="M398 142L399 143L398 142M445 142L446 143L445 142z"/>
<path style="fill:#a8a8a8; stroke:none;" d="M481 142L482 143L481 142M253 143L254 144L253 143z"/>
<path style="fill:#787878; stroke:none;" d="M444 144L445 145L444 144M369 145L370 146L369 145z"/>
<path style="fill:#a8a8a8; stroke:none;" d="M544 145L545 146L544 145M255 147L256 148L255 147z"/>
<path style="fill:#787878; stroke:none;" d="M545 147L546 148L545 147z"/>
<path style="fill:#a8a8a8; stroke:none;" d="M475 148L476 149L475 148z"/>
<path style="fill:#787878; stroke:none;" d="M125 150L126 151L125 150z"/>
<path style="fill:#a8a8a8; stroke:none;" d="M473 150L474 151L473 150M257 151L258 152L257 151z"/>
<path style="fill:#787878; stroke:none;" d="M126 154L127 155L126 154z"/>
<path style="fill:#a8a8a8; stroke:none;" d="M259 155L260 156L259 155M467 156L468 157L467 156M373 159L374 160L373 159z"/>
<path style="fill:#787878; stroke:none;" d="M399 159L400 160L399 159z"/>
<path style="fill:#a8a8a8; stroke:none;" d="M463 160L464 161L463 160M374 162L375 163L374 162M461 162L462 163L461 162M459 164L460 165L459 164z"/>
<path style="fill:#787878; stroke:none;" d="M375 166L376 167L375 166M397 166L398 167L397 166M326 169L327 170L326 169z"/>
<path style="fill:#a8a8a8; stroke:none;" d="M396 171L397 172L396 171z"/>
<path style="fill:#787878; stroke:none;" d="M553 171L554 172L553 171z"/>
<path style="fill:#010101; stroke:none;" d="M171.318 176.028C167.235 178.752 167.226 200.019 170.603 203.397C175.081 207.874 190.353 205.187 194.946 202.03C214.034 188.911 186.714 165.754 171.318 176.028z"/>
<path style="fill:#a8a8a8; stroke:none;" d="M432 175L433 176L432 175M324 176L325 177L324 176z"/>
<path style="fill:#787878; stroke:none;" d="M516 176L517 177L516 176M535 177L536 178L535 177M394 178L395 179L394 178M512 178L513 179L512 178z"/>
<path style="fill:#a8a8a8; stroke:none;" d="M197 179L198 180L197 179z"/>
<path style="fill:#787878; stroke:none;" d="M198 181L199 182L198 181z"/>
<path style="fill:#a8a8a8; stroke:none;" d="M393 181L394 182L393 181z"/>
<path style="fill:#787878; stroke:none;" d="M556 181L557 182L556 181z"/>
<path style="fill:#a8a8a8; stroke:none;" d="M199 183L200 184L199 183z"/>
<path style="fill:#787878; stroke:none;" d="M430 183L431 184L430 183z"/>
<path style="fill:#a8a8a8; stroke:none;" d="M557 183L558 184L557 183M268 184L269 185L268 184z"/>
<path style="fill:#787878; stroke:none;" d="M503 184L504 185L503 184M200 185L201 186L200 185M429 186L430 187L429 186z"/>
<path style="fill:#a8a8a8; stroke:none;" d="M201 187L202 188L201 187z"/>
<path style="fill:#787878; stroke:none;" d="M201 188L201 194L202 194L201 188M391 188L392 189L391 188M501 188L502 189L501 188M500 189L501 190L500 189M320 190L321 191L320 190M499 192L500 193L499 192z"/>
<path style="fill:#a8a8a8; stroke:none;" d="M319 193L320 194L319 193M390 193L391 194L390 193z"/>
<path style="fill:#787878; stroke:none;" d="M383 194L384 195L383 194z"/>
<path style="fill:#fcfcfc; stroke:none;" d="M199 196L200 197L199 196z"/>
<path style="fill:#a8a8a8; stroke:none;" d="M384 197L385 198L384 197M426 197L427 198L426 197z"/>
<path style="fill:#787878; stroke:none;" d="M272 198L273 199L272 198z"/>
<path style="fill:#fcfcfc; stroke:none;" d="M197 200L198 201L197 200z"/>
<path style="fill:#787878; stroke:none;" d="M388 200L389 201L388 200M196 201L197 202L196 201z"/>
<path style="fill:#a8a8a8; stroke:none;" d="M273 202L274 203L273 202M192 203L193 204L192 203M424 203L425 204L424 203z"/>
<path style="fill:#787878; stroke:none;" d="M424 204L425 205L424 204M275 209L276 210L275 209M277 216L278 217L277 216z"/>
<path style="fill:#fcfcfc; stroke:none;" d="M420 218L421 219L420 218z"/>
<path style="fill:#787878; stroke:none;" d="M352 221L353 222L352 221M342 234L343 235L342 234M227 235L228 236L227 235M228 237L229 238L228 237z"/>
<path style="fill:#fcfcfc; stroke:none;" d="M500 240L501 241L500 240z"/>
<path style="fill:#787878; stroke:none;" d="M184 241L185 242L184 241z"/>
<path style="fill:#a8a8a8; stroke:none;" d="M340 241L341 242L340 241M169 242L170 243L169 242z"/>
<path style="fill:#787878; stroke:none;" d="M339 244L340 245L339 244z"/>
<path style="fill:#fcfcfc; stroke:none;" d="M187 245L188 246L187 245z"/>
<path style="fill:#a8a8a8; stroke:none;" d="M286 246L287 247L286 246z"/>
<path style="fill:#787878; stroke:none;" d="M188 248L189 249L188 248M411 248L412 249L411 248z"/>
<path style="fill:#a8a8a8; stroke:none;" d="M551 248L552 249L551 248z"/>
<path style="fill:#fcfcfc; stroke:none;" d="M547 249L548 250L547 249z"/>
<path style="fill:#a8a8a8; stroke:none;" d="M548 249L549 250L548 249M189 250L190 251L189 250M287 250L288 251L287 250M545 250L546 251L545 250z"/>
<path style="fill:#787878; stroke:none;" d="M189 251L190 252L189 251z"/>
<path style="fill:#fcfcfc; stroke:none;" d="M541 251L542 252L541 251M535 253L536 254L535 253z"/>
<path style="fill:#787878; stroke:none;" d="M190 254L191 255L190 254z"/>
<path style="fill:#a8a8a8; stroke:none;" d="M191 256L192 257L191 256M362 256L363 257L362 256z"/>
<path style="fill:#787878; stroke:none;" d="M191 257L192 258L191 257M235 257L236 258L235 257M289 257L290 258L289 257z"/>
<path style="fill:#a8a8a8; stroke:none;" d="M408 259L409 260L408 259z"/>
<path style="fill:#787878; stroke:none;" d="M192 260L193 261L192 260M290 260L291 261L290 260z"/>
<path style="fill:#a8a8a8; stroke:none;" d="M363 260L364 261L363 260z"/>
<path style="fill:#787878; stroke:none;" d="M193.333 262.667L193.667 263.333L193.333 262.667z"/>
<path style="fill:#a8a8a8; stroke:none;" d="M334 262L335 263L334 262z"/>
<path style="fill:#787878; stroke:none;" d="M238 264L239 265L238 264z"/>
<path style="fill:#a8a8a8; stroke:none;" d="M291 264L292 265L291 264z"/>
<path style="fill:#787878; stroke:none;" d="M194 266L195 267L194 266M406 266L407 267L406 266M195 269L196 270L195 269M293 271L294 272L293 271M196 272L197 273L196 272M197.333 274.667L197.667 275.333L197.333 274.667M198 278L199 279L198 278M295 278L296 279L295 278z"/>
<path style="fill:#a8a8a8; stroke:none;" d="M125 280L126 281L125 280z"/>
<path style="fill:#787878; stroke:none;" d="M199.333 280.667L199.667 281.333L199.333 280.667z"/>
<path style="fill:#a8a8a8; stroke:none;" d="M247 282L248 283L247 282z"/>
<path style="fill:#fcfcfc; stroke:none;" d="M248 283L249 284L248 283z"/>
<path style="fill:#a8a8a8; stroke:none;" d="M328 283L329 284L328 283z"/>
<path style="fill:#787878; stroke:none;" d="M200 284L201 285L200 284z"/>
<path style="fill:#a8a8a8; stroke:none;" d="M400 286L401 287L400 286M201 287L202 288L201 287M202 289L203 290L202 289z"/>
<path style="fill:#787878; stroke:none;" d="M202 290L203 291L202 290z"/>
<path style="fill:#a8a8a8; stroke:none;" d="M326 290L327 291L326 290z"/>
<path style="fill:#a3a3a3; stroke:none;" d="M82 391L86.8264 411L87 460L86.9097 521L82 542L149 542C156.618 542 169.551 544.488 176.482 541.157C184.619 537.246 192.292 526.041 198.667 519.667C201.221 517.112 204.604 514.537 205.581 510.907C209.902 494.853 206 472.65 206 456C206 446.369 209.356 428.961 204.91 420.325C200.483 411.725 185.187 397.769 177 392.603C170.515 388.512 157.462 391 150 391L82 391z"/>
<path style="fill:#787878; stroke:none;" d="M176 391L177 392L176 391z"/>
<path style="fill:#a3a3a3; stroke:none;" d="M258 392.028C250.657 395.699 234.459 411.254 231.603 419C227.534 430.037 231 448.237 231 460L231 498C231 503.077 229.7 510.344 232.028 515C235.836 522.616 250.981 538.44 259 541.397C269.782 545.372 287.511 542 299 542C306.803 542 319.933 544.506 327 540.972C334.616 537.164 350.44 522.019 353.397 514C357.466 502.963 354 484.763 354 473L354 436C354 430.86 355.147 424.058 353.298 419.184C351.557 414.596 346.066 410.733 342.667 407.333C337.967 402.634 332.502 394.737 326.482 391.843C316.698 387.141 296.842 391 286 391C278.197 391 265.067 388.494 258 392.028M484 497C467.369 503.21 446.064 512.633 430.275 499.16C423.089 493.029 424 482.409 424 474C424 455.32 420.341 436.653 441 428.352C454.187 423.053 469.3 433.062 482 436C481.061 425.241 475.698 414.225 472.329 404C471.236 400.681 470.152 394.251 467.273 392.028C462.784 388.561 449.523 391 444 391C433.926 391 418.467 388.072 409.015 391.603C399.744 395.066 386.532 411.037 380.804 419C376.621 424.815 379 437.103 379 444C379 465.44 377.375 487.592 379.055 508.961C379.579 515.636 386.6 520.6 391 525C396.211 530.211 402.094 538.3 409.09 541.157C418.633 545.053 434.735 542 445 542C451.029 542 464.445 544.515 469.49 540.972C472.624 538.771 473.56 532.455 474.576 529C477.662 518.502 483.102 507.991 484 497M493 497L507 542L551 542C556.985 542 565.333 543.486 571 541.397C578.049 538.798 596.814 521.419 599.49 513.674C601.802 506.984 600 497.044 600 490C600 483.587 601.739 474.406 597.682 469C586.695 454.359 574.817 450.354 558 446.258C552.8 444.991 543.066 444.024 542.582 436.999C542.072 429.598 551.132 426.19 557 426.015C572.912 425.543 584.977 428.112 600 433C599.49 423.069 594.37 412.39 591.164 403C590.112 399.92 589.139 394.067 586.415 392.028C581.64 388.452 567.827 391 562 391C552.148 391 534.426 387.561 525.518 391.843C519.502 394.735 514.025 402.633 509.333 407.333C505.599 411.074 499.256 415.646 498.228 421.039C494.339 441.456 498.034 461.245 515.911 473.331C525.261 479.653 563.516 476.99 554.633 496.985C551.176 504.766 543.391 505 536 505C519.992 505.001 508.267 501.083 493 497z"/>
<path style="fill:#787878; stroke:none;" d="M327 392L328 393L327 392z"/>
<path style="fill:#a8a8a8; stroke:none;" d="M468 392L469 393L468 392M178 393L179 394L178 393z"/>
<path style="fill:#787878; stroke:none;" d="M329 394L330 395L329 394M82 395L83 396L82 395z"/>
<path style="fill:#a8a8a8; stroke:none;" d="M180 395L181 396L180 395z"/>
<path style="fill:#787878; stroke:none;" d="M331 396L332 397L331 396z"/>
<path style="fill:#a8a8a8; stroke:none;" d="M403 396L404 397L403 396M469 396L470 397L469 396M588 396L589 397L588 396M182 397L183 398L182 397z"/>
<path style="fill:#787878; stroke:none;" d="M333 398L334 399L333 398z"/>
<path style="fill:#a8a8a8; stroke:none;" d="M401 398L402 399L401 398M470 398L471 399L470 398M184 399L185 400L184 399z"/>
<path style="fill:#787878; stroke:none;" d="M335 400L336 401L335 400M337 402L338 403L337 402M339 404L340 405L339 404M472 404L473 405L472 404M243 406L244 407L243 406M341 406L342 407L341 406z"/>
<path style="fill:#fcfcfc; stroke:none;" d="M86 408L87 409L86 408z"/>
<path style="fill:#787878; stroke:none;" d="M343 408L344 409L343 408z"/>
<path style="fill:#a8a8a8; stroke:none;" d="M390 409L391 410L390 409z"/>
<path style="fill:#787878; stroke:none;" d="M345 410L346 411L345 410M474 410L475 411L474 410z"/>
<path style="fill:#a8a8a8; stroke:none;" d="M196 411L197 412L196 411M474 411L475 412L474 411z"/>
<path style="fill:#787878; stroke:none;" d="M347 412L348 413L347 412z"/>
<path style="fill:#a8a8a8; stroke:none;" d="M198 413L199 414L198 413M503 413L504 414L503 413z"/>
<path style="fill:#787878; stroke:none;" d="M349 414L350 415L349 414z"/>
<path style="fill:#a8a8a8; stroke:none;" d="M200 415L201 416L200 415M501 415L502 416L501 415z"/>
<path style="fill:#787878; stroke:none;" d="M351 416L352 417L351 416M476 416L477 417L476 416z"/>
<path style="fill:#a8a8a8; stroke:none;" d="M382 417L383 418L382 417z"/>
<path style="fill:#787878; stroke:none;" d="M353 418L354 419L353 418z"/>
<path style="fill:#a8a8a8; stroke:none;" d="M380 419L381 420L380 419z"/>
<path style="fill:#787878; stroke:none;" d="M478 422L479 423L478 422z"/>
<path style="fill:#a8a8a8; stroke:none;" d="M597 422L598 423L597 422z"/>
<path style="fill:#010101; stroke:none;" d="M133.318 426.028C128.393 429.314 131 444.715 131 450L131 487C131 491.523 129.641 498.821 132.028 502.852C136.225 509.941 149.776 504.816 154.787 501.446C158.865 498.703 161.426 492.775 161.895 488C163.265 474.048 165.861 448.572 159.491 436.004C155.766 428.655 141.538 420.543 133.318 426.028M287 425.637C281.299 427.26 276.944 431.165 275.474 437C274.066 442.584 275 449.272 275 455C275 471.258 268.291 512.635 297 505.446C302.932 503.961 307.641 499.95 309.362 494C311.045 488.179 310 481.012 310 475C310 458.79 316.086 417.358 287 425.637z"/>
<path style="fill:#787878; stroke:none;" d="M299 426L300 427L299 426z"/>
<path style="fill:#a8a8a8; stroke:none;" d="M551 426L551 427L581 427L551 426z"/>
<path style="fill:#787878; stroke:none;" d="M150 427L151 428L150 427M584 427L585 428L584 427M303 428L304 429L303 428M458 428L459 429L458 428z"/>
<path style="fill:#fcfcfc; stroke:none;" d="M480 428L481 429L480 428z"/>
<path style="fill:#a8a8a8; stroke:none;" d="M547 428L548 429L547 428z"/>
<path style="fill:#787878; stroke:none;" d="M154 429L155 430L154 429z"/>
<path style="fill:#a8a8a8; stroke:none;" d="M278 430L279 431L278 430z"/>
<path style="fill:#787878; stroke:none;" d="M464 430L465 431L464 430M470 432L471 433L470 432M598 432L599 433L598 432M158 434L159 435L158 434M276 434L277 435L276 434M476 434L477 435L476 434z"/>
<path style="fill:#fcfcfc; stroke:none;" d="M482 434L483 435L482 434z"/>
<path style="fill:#787878; stroke:none;" d="M428 435L429 436L428 435M482 435L483 436L482 435M160 438L161 439L160 438M426 439L427 440L426 439M424 443L425 444L424 443M546 443L547 444L546 443z"/>
<path style="fill:#a8a8a8; stroke:none;" d="M555 445L556 446L555 445M567 448L568 449L567 448z"/>
<path style="fill:#787878; stroke:none;" d="M580 452L581 453L580 452M582 454L583 455L582 454M498 455L499 456L498 455M584 456L585 457L584 456M500 457L501 458L500 457M586 458L587 459L586 458M502 459L503 460L502 459M588 460L589 461L588 460M504 461L505 462L504 461M506 463L507 464L506 463z"/>
<path style="fill:#a8a8a8; stroke:none;" d="M518 474L519 475L518 474z"/>
<path style="fill:#fcfcfc; stroke:none;" d="M533 478L534 479L533 478z"/>
<path style="fill:#a8a8a8; stroke:none;" d="M534 478L535 479L534 478z"/>
<path style="fill:#787878; stroke:none;" d="M535 478L536 479L535 478M542 480L542 481L545 481L542 480M547 481L548 482L547 481M424 489L425 490L424 489M426 493L427 494L426 493M276 496L277 497L276 496M308 496L309 497L308 496M428 497L429 498L428 497z"/>
<path style="fill:#fcfcfc; stroke:none;" d="M484 497L485 498L484 497M554 497L555 498L554 497z"/>
<path style="fill:#a8a8a8; stroke:none;" d="M428 498L429 499L428 498z"/>
<path style="fill:#787878; stroke:none;" d="M484 498L485 499L484 498M278 500L279 501L278 500M306 500L307 501L306 500z"/>
<path style="fill:#a8a8a8; stroke:none;" d="M154 501L155 502L154 501z"/>
<path style="fill:#fcfcfc; stroke:none;" d="M305 501L306 502L305 501z"/>
<path style="fill:#a8a8a8; stroke:none;" d="M483 501L484 502L483 501z"/>
<path style="fill:#787878; stroke:none;" d="M552 501L553 502L552 501z"/>
<path style="fill:#a8a8a8; stroke:none;" d="M280 502L281 503L280 502M150 503L151 504L150 503z"/>
<path style="fill:#fcfcfc; stroke:none;" d="M301 503L302 504L301 503z"/>
<path style="fill:#a8a8a8; stroke:none;" d="M284 504L285 505L284 504z"/>
<path style="fill:#fcfcfc; stroke:none;" d="M297 505L298 506L297 505z"/>
<path style="fill:#a8a8a8; stroke:none;" d="M480 509L481 510L480 509M380 513L381 514L380 513z"/>
<path style="fill:#787878; stroke:none;" d="M598 515L599 516L598 515M596 517L597 518L596 517M594 519L595 520L594 519M592 521L593 522L592 521z"/>
<path style="fill:#a8a8a8; stroke:none;" d="M476 522L477 523L476 522z"/>
<path style="fill:#787878; stroke:none;" d="M590 523L591 524L590 523z"/>
<path style="fill:#a8a8a8; stroke:none;" d="M475 525L476 526L475 525z"/>
<path style="fill:#787878; stroke:none;" d="M588 525L589 526L588 525M586 527L587 528L586 527M585 528L586 529L585 528M584 529L585 530L584 529M583 530L584 531L583 530M582 531L583 532L582 531M581 532L582 533L581 532M580 533L581 534L580 533M579 534L580 535L579 534M578 535L579 536L578 535M577 536L578 537L577 536M82 537L83 538L82 537M576 537L577 538L576 537z"/>
<path style="fill:#a8a8a8; stroke:none;" d="M405 538L406 539L405 538z"/>
<path style="fill:#787878; stroke:none;" d="M575 538L576 539L575 538M574 539L575 540L574 539z"/>
<path style="fill:#a8a8a8; stroke:none;" d="M407 540L408 541L407 540z"/>
<path style="fill:#787878; stroke:none;" d="M573 540L574 541L573 540z"/>
<path style="fill:#a8a8a8; stroke:none;" d="M408 541L409 542L408 541z"/>
<path style="fill:#787878; stroke:none;" d="M572 541L573 542L572 541z"/>
</svg>
