<?xml version="1.0" standalone="yes"?>
<svg xmlns="http://www.w3.org/2000/svg" width="10pt" height="10pt">
<path style="fill:#010101; stroke:none;" d="M0 0L0 4096L4096 4096L4096 0L0 0z"/>
<path style="fill:#a3a3a3; stroke:none;" d="M737 842C742.082 866.558 751.709 891.103 759.344 915C762.611 925.224 767.677 936.3 768.826 947C773.021 986.038 769 1027.72 769 1067L769 1309L769 1531C769 1566.84 773.127 1605.45 768.816 1641C767.788 1649.47 763.813 1657.84 761.424 1666C753.721 1692.31 743.174 1718.31 737 1745L769 1746L834 1746L1047 1746C1046.04 1735.04 1040.85 1723.48 1037.5 1713C1030.08 1689.77 1020.57 1665.84 1015.52 1642C1010.7 1619.28 1015 1591.25 1015 1568L1015 1495C1015 1483.41 1013.37 1470.45 1015.15 1459C1016.14 1452.65 1025.65 1443.14 1032 1442.15C1040.61 1440.81 1050.29 1442 1059 1442C1075.49 1442 1091.97 1439.73 1107 1447.25C1112.19 1449.84 1120.53 1452.27 1123.91 1457.21C1127.96 1463.12 1129.41 1472.24 1131.67 1479L1146.67 1524L1195.67 1671L1213.67 1725C1215.37 1730.1 1216.96 1741.78 1221.51 1744.97C1226.07 1748.17 1237.59 1746 1243 1746L1298 1746L1511 1746C1508.5 1733.04 1497.03 1719.38 1490.42 1708C1474.4 1680.39 1457.79 1652.99 1442.44 1625C1434.02 1609.67 1429.38 1591.39 1423.32 1575C1411 1541.69 1399.01 1508.26 1386.58 1475C1378.73 1454.03 1371.08 1433 1363.32 1412C1359.76 1402.36 1353.51 1391.19 1352.19 1381C1351.57 1376.26 1355.99 1373.02 1359 1370L1380 1349L1439 1290C1446.91 1282.09 1459.95 1273.04 1464.97 1263C1467.74 1257.46 1466 1248.08 1466 1242L1466 1194L1466 1072C1466 1052.72 1468.81 1031.03 1465.85 1012C1464.26 1001.75 1447.1 990.102 1440 983L1367 910L1319 862C1313.16 856.161 1305.87 845.506 1298 842.604C1284.67 837.689 1262.23 842 1248 842L1132 842L737 842M1517 842C1528.07 880.416 1557.79 912.869 1569.97 951C1589.06 1010.74 1605.23 1071.69 1622.43 1132C1655.54 1248.16 1689.7 1364.06 1723.58 1480C1741.87 1542.62 1760.28 1605.25 1778.14 1668C1783.27 1686.02 1788.54 1703.99 1793.71 1722C1795.45 1728.07 1796.63 1739.71 1800.93 1744.4C1805.44 1749.29 1825.57 1746 1832 1746L1923 1746C1930.19 1746 1952.57 1749.64 1956.7 1742.85C1965.01 1729.16 1967.28 1707.41 1971.71 1692C1982.63 1654.01 1993.59 1616.02 2004.43 1578C2025.92 1502.62 2047.94 1427.38 2069.43 1352C2080.27 1313.99 2096.67 1274.02 2097 1234L2098 1234C2100.01 1280.88 2118.82 1327.27 2131.57 1372C2153.63 1449.36 2175.17 1526.95 2198.28 1604C2207.94 1636.21 2216.97 1668.64 2226.14 1701C2229.51 1712.9 2231.45 1733.89 2238.94 1743.68C2243.47 1749.6 2265.97 1746 2273 1746L2363 1746C2369.67 1746 2389.33 1749.31 2394.16 1744.4C2398.5 1739.98 2399.55 1728.86 2401.15 1723C2405.65 1706.6 2410.66 1690.32 2415.42 1674C2433.53 1612.03 2451.32 1549.97 2469.42 1488C2503.3 1372.06 2537.46 1256.16 2570.57 1140C2588.72 1076.35 2605.88 1012.06 2626.03 949C2637.99 911.568 2667.14 879.71 2678 842L2394 842C2394.21 867.432 2400.13 893.738 2403.16 919C2404.21 927.853 2407.37 938.412 2405.93 947.285C2401.99 971.645 2392.61 996.169 2386.15 1020C2372.7 1069.68 2359.36 1119.41 2345.58 1169C2336.01 1203.41 2324.1 1238.91 2324 1275L2323 1275C2319.01 1224.53 2302.63 1176.43 2288.71 1128C2270.73 1065.42 2253.02 1002.74 2235.58 940C2226.54 907.5 2214.84 875.032 2208 842L2013 842C2008.11 865.627 1999.88 888.765 1993.42 912C1974.77 979.08 1955.67 1046.04 1936.58 1113C1921.2 1166.93 1905.04 1219.33 1898 1275L1897 1275C1896.9 1237.56 1884.34 1200.69 1874.42 1165C1861.56 1118.73 1849.44 1072.27 1836.58 1026C1829.46 1000.39 1820.09 974.168 1815.46 948C1813.82 938.695 1816.73 928.278 1817.84 919C1820.87 893.738 1826.79 867.432 1827 842L1517 842M3359 1480C3323.92 1491.41 3289 1503.33 3254 1515C3237.59 1520.47 3220.06 1528.83 3203 1531.67C3185.89 1534.53 3166.35 1532 3149 1532C3135.16 1532 3118.52 1534.53 3105 1531.61C3095.48 1529.55 3085.69 1522.59 3077 1518.25C3061.44 1510.47 3043.34 1503.93 3029.04 1494.03C3022.37 1489.41 3019.28 1479.04 3015.75 1472C3006.33 1453.16 2994 1435.41 2994 1414L2994 1192C2994 1181.88 2992.25 1169.91 2994.39 1160C2997.3 1146.55 3007.6 1132.3 3013.75 1120C3017.59 1112.33 3021.31 1099.28 3028.21 1093.97C3041.63 1083.64 3060.84 1077.33 3076 1069.75C3084.69 1065.41 3094.48 1058.45 3104 1056.39C3119.33 1053.08 3138.31 1056 3154 1056C3166.08 1056 3180.17 1054.01 3192 1056.52C3230.36 1064.65 3268.77 1081.92 3306 1094.33C3318.9 1098.63 3332.54 1105.01 3346 1107C3341.3 1086.67 3332.7 1066.88 3326.34 1047C3312.03 1002.2 3296.88 957.641 3282 913C3274.43 890.282 3262.5 865.673 3259 842L3008 842L2938 842C2929.95 842 2916.28 839.386 2909 843.028C2903.63 845.715 2899.2 851.803 2895 856L2867 884L2775 976L2743 1008C2738.72 1012.28 2731.75 1017.18 2729.6 1023C2726.38 1031.74 2729 1045.71 2729 1055L2729 1126L2729 1368L2729 1511L2729 1549C2729 1554.2 2727.71 1561.41 2730.6 1566C2740.41 1581.53 2759 1595 2772 1608L2861 1697L2895 1731C2899.55 1735.55 2904.83 1743.12 2911 1745.4C2916.92 1747.58 2925.74 1746 2932 1746L2977 1746L3129 1746L3233 1746C3241.51 1746 3263.95 1749.97 3270.58 1744.4C3275.42 1740.33 3277.39 1727.94 3279.14 1722C3283.9 1705.89 3289.68 1689.95 3295 1674L3339.52 1540C3346.11 1520.22 3354.34 1500.33 3359 1480z"/>
<path style="fill:#7f7f7f; stroke:none;" d="M737 844L738 845L737 844z"/>
<path style="fill:#ffffff; stroke:none;" d="M2677 844L2678 845L2677 844z"/>
<path style="fill:#b0b0b0; stroke:none;" d="M3259 845L3260 846L3259 845z"/>
<path style="fill:#ffffff; stroke:none;" d="M2676 846L2677 847L2676 846M2209 848L2210 849L2209 848M2675 848L2676 849L2675 848z"/>
<path style="fill:#b0b0b0; stroke:none;" d="M3260 848L3261 849L3260 848M1826 849L1827 850L1826 849z"/>
<path style="fill:#ffffff; stroke:none;" d="M2674 850L2675 851L2674 850z"/>
<path style="fill:#b0b0b0; stroke:none;" d="M3261 851L3262 852L3261 851z"/>
<path style="fill:#ffffff; stroke:none;" d="M2673 852L2674 853L2673 852M2672 854L2673 855L2672 854z"/>
<path style="fill:#b0b0b0; stroke:none;" d="M3262 854L3263 855L3262 854z"/>
<path style="fill:#ffffff; stroke:none;" d="M2671 856L2672 857L2671 856z"/>
<path style="fill:#b0b0b0; stroke:none;" d="M1825 857L1826 858L1825 857M3263 857L3264 858L3263 857z"/>
<path style="fill:#ffffff; stroke:none;" d="M2670 858L2671 859L2670 858z"/>
<path style="fill:#b0b0b0; stroke:none;" d="M2008 859L2009 860L2008 859z"/>
<path style="fill:#7f7f7f; stroke:none;" d="M742 860L743 861L742 860z"/>
<path style="fill:#ffffff; stroke:none;" d="M2669 860L2670 861L2669 860z"/>
<path style="fill:#7f7f7f; stroke:none;" d="M3264 860L3265 861L3264 860z"/>
<path style="fill:#ffffff; stroke:none;" d="M2668 862L2669 863L2668 862z"/>
<path style="fill:#7f7f7f; stroke:none;" d="M3265 863L3266 864L3265 863z"/>
<path style="fill:#ffffff; stroke:none;" d="M2667 864L2668 865L2667 864z"/>
<path style="fill:#b0b0b0; stroke:none;" d="M1824 865L1825 866L1824 865M2006 866L2007 867L2006 866M2214 866L2215 867L2214 866z"/>
<path style="fill:#ffffff; stroke:none;" d="M2666 866L2667 867L2666 866z"/>
<path style="fill:#7f7f7f; stroke:none;" d="M3266 866L3267 867L3266 866z"/>
<path style="fill:#ffffff; stroke:none;" d="M2665 868L2666 869L2665 868M3267 869L3268 870L3267 869M2664 870L2665 871L2664 870M2663 872L2664 873L2663 872M3268 872L3269 873L3268 872z"/>
<path style="fill:#b0b0b0; stroke:none;" d="M1823 873L1824 874L1823 873M2004 873L2005 874L2004 873z"/>
<path style="fill:#ffffff; stroke:none;" d="M2662 874L2663 875L2662 874M3269 875L3270 876L3269 875z"/>
<path style="fill:#7f7f7f; stroke:none;" d="M747 876L748 877L747 876z"/>
<path style="fill:#ffffff; stroke:none;" d="M2661 876L2662 877L2661 876M2660 878L2661 879L2660 878M3270 878L3271 879L3270 878z"/>
<path style="fill:#7f7f7f; stroke:none;" d="M2002 880L2003 881L2002 880z"/>
<path style="fill:#ffffff; stroke:none;" d="M2659 880L2660 881L2659 880z"/>
<path style="fill:#b0b0b0; stroke:none;" d="M1822 881L1823 882L1822 881z"/>
<path style="fill:#ffffff; stroke:none;" d="M3271 881L3272 882L3271 881M2658 882L2659 883L2658 882M2657 884L2658 885L2657 884M2656 886L2657 887L2656 886M2000 887L2001 888L2000 887z"/>
<path style="fill:#b0b0b0; stroke:none;" d="M2220 887L2221 888L2220 887z"/>
<path style="fill:#ffffff; stroke:none;" d="M2655 888L2656 889L2655 888z"/>
<path style="fill:#b0b0b0; stroke:none;" d="M1821 889L1822 890L1821 889z"/>
<path style="fill:#ffffff; stroke:none;" d="M2654 890L2655 891L2654 890z"/>
<path style="fill:#b0b0b0; stroke:none;" d="M1999 891L2000 892L1999 891z"/>
<path style="fill:#7f7f7f; stroke:none;" d="M752 892L753 893L752 892z"/>
<path style="fill:#ffffff; stroke:none;" d="M2653 892L2654 893L2653 892z"/>
<path style="fill:#7f7f7f; stroke:none;" d="M2222 894L2223 895L2222 894z"/>
<path style="fill:#ffffff; stroke:none;" d="M2652 894L2653 895L2652 894M2651 896L2652 897L2651 896z"/>
<path style="fill:#b0b0b0; stroke:none;" d="M1820 897L1821 898L1820 897M1997 898L1998 899L1997 898z"/>
<path style="fill:#ffffff; stroke:none;" d="M2650 898L2651 899L2650 898M2649 900L2650 901L2649 900M2224 901L2225 902L2224 901M2648 902L2649 903L2648 902M2647 904L2648 905L2647 904z"/>
<path style="fill:#b0b0b0; stroke:none;" d="M1819 905L1820 906L1819 905z"/>
<path style="fill:#ffffff; stroke:none;" d="M2646 906L2647 907L2646 906z"/>
<path style="fill:#7f7f7f; stroke:none;" d="M757 908L758 909L757 908z"/>
<path style="fill:#ffffff; stroke:none;" d="M2226 908L2227 909L2226 908M2645 908L2646 909L2645 908M2644 910L2645 911L2644 910M2643 912L2644 913L2643 912z"/>
<path style="fill:#b0b0b0; stroke:none;" d="M1818 913L1819 914L1818 913z"/>
<path style="fill:#ffffff; stroke:none;" d="M2642 914L2643 915L2642 914M2641 916L2642 917L2641 916M2640 918L2641 919L2640 918z"/>
<path style="fill:#b0b0b0; stroke:none;" d="M1991 919L1992 920L1991 919M2229 919L2230 920L2229 919z"/>
<path style="fill:#ffffff; stroke:none;" d="M2639 920L2640 921L2639 920z"/>
<path style="fill:#b0b0b0; stroke:none;" d="M1817 921L1818 922L1817 921z"/>
<path style="fill:#ffffff; stroke:none;" d="M2638 922L2639 923L2638 922z"/>
<path style="fill:#7f7f7f; stroke:none;" d="M762 924L763 925L762 924z"/>
<path style="fill:#ffffff; stroke:none;" d="M2637 924L2638 925L2637 924z"/>
<path style="fill:#b0b0b0; stroke:none;" d="M1989 926L1990 927L1989 926M2231 926L2232 927L2231 926z"/>
<path style="fill:#ffffff; stroke:none;" d="M2636 926L2637 927L2636 926M2635 928L2636 929L2635 928z"/>
<path style="fill:#b0b0b0; stroke:none;" d="M1816 929L1817 930L1816 929z"/>
<path style="fill:#ffffff; stroke:none;" d="M2634 930L2635 931L2634 930M2633 932L2634 933L2633 932z"/>
<path style="fill:#b0b0b0; stroke:none;" d="M1987 933L1988 934L1987 933z"/>
<path style="fill:#ffffff; stroke:none;" d="M2632 934L2633 935L2632 934M2631 936L2632 937L2631 936z"/>
<path style="fill:#b0b0b0; stroke:none;" d="M1815 937L1816 938L1815 937z"/>
<path style="fill:#ffffff; stroke:none;" d="M2630 938L2631 939L2630 938z"/>
<path style="fill:#7f7f7f; stroke:none;" d="M767 940L768 941L767 940z"/>
<path style="fill:#ffffff; stroke:none;" d="M1985 940L1986 941L1985 940M2629 940L2630 941L2629 940M2628 942L2629 943L2628 942M2627 944L2628 945L2627 944M1983 947L1984 948L1983 947z"/>
<path style="fill:#b0b0b0; stroke:none;" d="M2237 947L2238 948L2237 947M2405 949L2406 950L2405 949M1982 951L1983 952L1982 951M1570 952L1571 953L1570 952M2239 954L2240 955L2239 954M1817 956L1818 957L1817 956M1980 958L1981 959L1980 958M1572 959L1573 960L1572 959M2402 960L2403 961L2402 960z"/>
<path style="fill:#7f7f7f; stroke:none;" d="M2622 960L2623 961L2622 960z"/>
<path style="fill:#ffffff; stroke:none;" d="M2241 961L2242 962L2241 961M1574 966L1575 967L1574 966z"/>
<path style="fill:#b0b0b0; stroke:none;" d="M1820 967L1821 968L1820 967z"/>
<path style="fill:#ffffff; stroke:none;" d="M2243 968L2244 969L2243 968z"/>
<path style="fill:#b0b0b0; stroke:none;" d="M1575 969L1576 970L1575 969M2399 971L2400 972L2399 971M1823 978L1824 979L1823 978M1974 979L1975 980L1974 979M2246 979L2247 980L2246 979M2396 982L2397 983L2396 982M1579 983L1580 984L1579 983M1972 986L1973 987L1972 986M2248 986L2249 987L2248 986M1826 989L1827 990L1826 989M1581 990L1582 991L1581 990M3307 990L3308 991L3307 990z"/>
<path style="fill:#7f7f7f; stroke:none;" d="M2613 991L2614 992L2613 991z"/>
<path style="fill:#b0b0b0; stroke:none;" d="M1970 993L1971 994L1970 993M2393 993L2394 994L2393 993M3308 993L3309 994L3308 993z"/>
<path style="fill:#ffffff; stroke:none;" d="M1583 997L1584 998L1583 997z"/>
<path style="fill:#b0b0b0; stroke:none;" d="M1584 1000L1585 1001L1584 1000M1829 1000L1830 1001L1829 1000z"/>
<path style="fill:#ffffff; stroke:none;" d="M1968 1000L1969 1001L1968 1000z"/>
<path style="fill:#b0b0b0; stroke:none;" d="M2390 1004L2391 1005L2390 1004M3312 1005L3313 1006L3312 1005z"/>
<path style="fill:#ffffff; stroke:none;" d="M1966 1007L1967 1008L1966 1007z"/>
<path style="fill:#b0b0b0; stroke:none;" d="M2254 1007L2255 1008L2254 1007M1832 1011L1833 1012L1832 1011M1588 1014L1589 1015L1588 1014M2256 1014L2257 1015L2256 1014M2387 1015L2388 1016L2387 1015M3316 1017L3317 1018L3316 1017M1963 1018L1964 1019L1963 1018M1590 1021L1591 1022L1590 1021z"/>
<path style="fill:#ffffff; stroke:none;" d="M2258 1021L2259 1022L2258 1021z"/>
<path style="fill:#b0b0b0; stroke:none;" d="M1835 1022L1836 1023L1835 1022z"/>
<path style="fill:#7f7f7f; stroke:none;" d="M2604 1022L2605 1023L2604 1022z"/>
<path style="fill:#b0b0b0; stroke:none;" d="M1961 1025L1962 1026L1961 1025M2384 1026L2385 1027L2384 1026z"/>
<path style="fill:#ffffff; stroke:none;" d="M1592 1028L1593 1029L1592 1028M2260 1028L2261 1029L2260 1028z"/>
<path style="fill:#b0b0b0; stroke:none;" d="M1593 1031L1594 1032L1593 1031M3321 1032L3322 1033L3321 1032M1838 1033L1839 1034L1838 1033M3322 1035L3323 1036L3322 1035M2381 1037L2382 1038L2381 1037M2263 1039L2264 1040L2263 1039M1841 1044L1842 1045L1841 1044M3325 1044L3326 1045L3325 1044M1597 1045L1598 1046L1597 1045M1955 1046L1956 1047L1955 1046M2265 1046L2266 1047L2265 1046M3326 1047L3327 1048L3326 1047M2378 1048L2379 1049L2378 1048z"/>
<path style="fill:#010101; stroke:none;" d="M1028 1050.03C1012.35 1057.85 1015 1073.49 1015 1088L1015 1187C1015 1198.25 1011.07 1218.27 1019.06 1227C1030.42 1239.42 1050.36 1235 1066 1235C1088.19 1235 1115.34 1239.29 1137 1234.61C1152.38 1231.29 1170.17 1219.28 1183.98 1211.74C1192.92 1206.86 1196.87 1192.75 1201.25 1184C1205.29 1175.92 1211.69 1166.86 1213.61 1158C1218.38 1135.94 1209.76 1118.03 1200.25 1099C1196.63 1091.77 1193.6 1082.41 1188.36 1076.21C1183.16 1070.05 1172.11 1066.8 1165 1063.25C1156.02 1058.75 1145.84 1051.52 1136 1049.39C1115.55 1044.97 1089.95 1049 1069 1049C1058.02 1049 1037.85 1045.1 1028 1050.03z"/>
<path style="fill:#b0b0b0; stroke:none;" d="M3327 1050L3328 1051L3327 1050M1599 1052L1600 1053L1599 1052M1953 1053L1954 1054L1953 1053z"/>
<path style="fill:#7f7f7f; stroke:none;" d="M2595 1053L2596 1054L2595 1053z"/>
<path style="fill:#b0b0b0; stroke:none;" d="M3328 1053L3329 1054L3328 1053M1844 1055L1845 1056L1844 1055M3329 1056L3330 1057L3329 1056z"/>
<path style="fill:#ffffff; stroke:none;" d="M1601 1059L1602 1060L1601 1059z"/>
<path style="fill:#b0b0b0; stroke:none;" d="M2375 1059L2376 1060L2375 1059z"/>
<path style="fill:#7f7f7f; stroke:none;" d="M3330 1059L3331 1060L3330 1059z"/>
<path style="fill:#ffffff; stroke:none;" d="M1951 1060L1952 1061L1951 1060z"/>
<path style="fill:#b0b0b0; stroke:none;" d="M1602 1062L1603 1063L1602 1062z"/>
<path style="fill:#7f7f7f; stroke:none;" d="M3331 1062L3332 1063L3331 1062M3332 1065L3333 1066L3332 1065z"/>
<path style="fill:#b0b0b0; stroke:none;" d="M1847 1066L1848 1067L1847 1066z"/>
<path style="fill:#ffffff; stroke:none;" d="M1949 1067L1950 1068L1949 1067z"/>
<path style="fill:#b0b0b0; stroke:none;" d="M2271 1067L2272 1068L2271 1067z"/>
<path style="fill:#ffffff; stroke:none;" d="M3333 1068L3334 1069L3333 1068z"/>
<path style="fill:#b0b0b0; stroke:none;" d="M2372 1070L2373 1071L2372 1070z"/>
<path style="fill:#ffffff; stroke:none;" d="M3334 1071L3335 1072L3334 1071z"/>
<path style="fill:#b0b0b0; stroke:none;" d="M2273 1074L2274 1075L2273 1074z"/>
<path style="fill:#ffffff; stroke:none;" d="M3335 1074L3336 1075L3335 1074z"/>
<path style="fill:#7f7f7f; stroke:none;" d="M1188 1075L1189 1076L1188 1075z"/>
<path style="fill:#b0b0b0; stroke:none;" d="M1606 1076L1607 1077L1606 1076z"/>
<path style="fill:#7f7f7f; stroke:none;" d="M1189 1077L1190 1078L1189 1077z"/>
<path style="fill:#b0b0b0; stroke:none;" d="M1850 1077L1851 1078L1850 1077z"/>
<path style="fill:#ffffff; stroke:none;" d="M3336 1077L3337 1078L3336 1077z"/>
<path style="fill:#b0b0b0; stroke:none;" d="M1946 1078L1947 1079L1946 1078z"/>
<path style="fill:#7f7f7f; stroke:none;" d="M1190 1079L1191 1080L1190 1079z"/>
<path style="fill:#ffffff; stroke:none;" d="M3337 1080L3338 1081L3337 1080z"/>
<path style="fill:#7f7f7f; stroke:none;" d="M1191 1081L1192 1082L1191 1081z"/>
<path style="fill:#ffffff; stroke:none;" d="M2275 1081L2276 1082L2275 1081z"/>
<path style="fill:#b0b0b0; stroke:none;" d="M2369 1081L2370 1082L2369 1081z"/>
<path style="fill:#7f7f7f; stroke:none;" d="M1192 1083L1193 1084L1192 1083z"/>
<path style="fill:#b0b0b0; stroke:none;" d="M1608 1083L1609 1084L1608 1083z"/>
<path style="fill:#7f7f7f; stroke:none;" d="M2586 1084L2587 1085L2586 1084M1193 1085L1194 1086L1193 1085z"/>
<path style="fill:#b0b0b0; stroke:none;" d="M1944 1085L1945 1086L1944 1085z"/>
<path style="fill:#7f7f7f; stroke:none;" d="M1194 1087L1195 1088L1194 1087z"/>
<path style="fill:#b0b0b0; stroke:none;" d="M1853 1088L1854 1089L1853 1088z"/>
<path style="fill:#ffffff; stroke:none;" d="M2277 1088L2278 1089L2277 1088z"/>
<path style="fill:#7f7f7f; stroke:none;" d="M1195 1089L1196 1090L1195 1089z"/>
<path style="fill:#ffffff; stroke:none;" d="M1610 1090L1611 1091L1610 1090z"/>
<path style="fill:#7f7f7f; stroke:none;" d="M1196 1091L1197 1092L1196 1091z"/>
<path style="fill:#b0b0b0; stroke:none;" d="M2278 1092L2279 1093L2278 1092M2366 1092L2367 1093L2366 1092z"/>
<path style="fill:#7f7f7f; stroke:none;" d="M1197 1093L1198 1094L1197 1093z"/>
<path style="fill:#b0b0b0; stroke:none;" d="M1611 1093L1612 1094L1611 1093z"/>
<path style="fill:#7f7f7f; stroke:none;" d="M1198 1095L1199 1096L1198 1095M1199 1097L1200 1098L1199 1097M1200 1099L1201 1100L1200 1099z"/>
<path style="fill:#b0b0b0; stroke:none;" d="M1856 1099L1857 1100L1856 1099M2280 1099L2281 1100L2280 1099z"/>
<path style="fill:#7f7f7f; stroke:none;" d="M1201 1101L1202 1102L1201 1101z"/>
<path style="fill:#b0b0b0; stroke:none;" d="M2581 1101L2582 1102L2581 1101z"/>
<path style="fill:#7f7f7f; stroke:none;" d="M1202 1103L1203 1104L1202 1103z"/>
<path style="fill:#b0b0b0; stroke:none;" d="M2363 1103L2364 1104L2363 1103z"/>
<path style="fill:#7f7f7f; stroke:none;" d="M1203 1105L1204 1106L1203 1105z"/>
<path style="fill:#b0b0b0; stroke:none;" d="M1938 1106L1939 1107L1938 1106z"/>
<path style="fill:#7f7f7f; stroke:none;" d="M1204 1107L1205 1108L1204 1107z"/>
<path style="fill:#b0b0b0; stroke:none;" d="M1615 1107L1616 1108L1615 1107z"/>
<path style="fill:#7f7f7f; stroke:none;" d="M1205 1109L1206 1110L1205 1109z"/>
<path style="fill:#b0b0b0; stroke:none;" d="M1859 1110L1860 1111L1859 1110z"/>
<path style="fill:#7f7f7f; stroke:none;" d="M1206 1111L1207 1112L1206 1111M1207 1113L1208 1114L1207 1113M1936 1113L1937 1114L1936 1113z"/>
<path style="fill:#b0b0b0; stroke:none;" d="M1617 1114L1618 1115L1617 1114M2360 1114L2361 1115L2360 1114z"/>
<path style="fill:#7f7f7f; stroke:none;" d="M1208 1115L1209 1116L1208 1115M2577 1115L2578 1116L2577 1115M1209 1117L1210 1118L1209 1117M1210 1119L1211 1120L1210 1119z"/>
<path style="fill:#ffffff; stroke:none;" d="M1934 1120L1935 1121L1934 1120z"/>
<path style="fill:#b0b0b0; stroke:none;" d="M2286 1120L2287 1121L2286 1120z"/>
<path style="fill:#7f7f7f; stroke:none;" d="M1211 1121L1212 1122L1211 1121z"/>
<path style="fill:#ffffff; stroke:none;" d="M1619 1121L1620 1122L1619 1121z"/>
<path style="fill:#b0b0b0; stroke:none;" d="M1862 1121L1863 1122L1862 1121z"/>
<path style="fill:#7f7f7f; stroke:none;" d="M1212 1123L1213 1124L1212 1123z"/>
<path style="fill:#b0b0b0; stroke:none;" d="M1620 1124L1621 1125L1620 1124z"/>
<path style="fill:#7f7f7f; stroke:none;" d="M1213 1125L1214 1126L1213 1125z"/>
<path style="fill:#b0b0b0; stroke:none;" d="M2357 1125L2358 1126L2357 1125M2288 1127L2289 1128L2288 1127M1865 1132L1866 1133L1865 1132M2572 1132L2573 1133L2572 1132M2290 1134L2291 1135L2290 1134M2354 1136L2355 1137L2354 1136M1624 1138L1625 1139L1624 1138z"/>
<path style="fill:#ffffff; stroke:none;" d="M2292 1141L2293 1142L2292 1141z"/>
<path style="fill:#b0b0b0; stroke:none;" d="M1868 1143L1869 1144L1868 1143M1626 1145L1627 1146L1626 1145M1927 1145L1928 1146L1927 1145z"/>
<path style="fill:#7f7f7f; stroke:none;" d="M2568 1146L2569 1147L2568 1146z"/>
<path style="fill:#b0b0b0; stroke:none;" d="M2351 1147L2352 1148L2351 1147z"/>
<path style="fill:#ffffff; stroke:none;" d="M2294 1148L2295 1149L2294 1148M1628 1152L1629 1153L1628 1152z"/>
<path style="fill:#b0b0b0; stroke:none;" d="M2295 1152L2296 1153L2295 1152M1871 1154L1872 1155L1871 1154M1629 1155L1630 1156L1629 1155M2348 1158L2349 1159L2348 1158M2297 1159L2298 1160L2297 1159M2563 1163L2564 1164L2563 1163M1874 1165L1875 1166L1874 1165M1921 1166L1922 1167L1921 1166M1633 1169L1634 1170L1633 1169M2345 1169L2346 1170L2345 1169z"/>
<path style="fill:#7f7f7f; stroke:none;" d="M1919 1173L1920 1174L1919 1173z"/>
<path style="fill:#b0b0b0; stroke:none;" d="M1635 1176L1636 1177L1635 1176M1877 1176L1878 1177L1877 1176z"/>
<path style="fill:#7f7f7f; stroke:none;" d="M2559 1177L2560 1178L2559 1177z"/>
<path style="fill:#ffffff; stroke:none;" d="M1917 1180L1918 1181L1917 1180z"/>
<path style="fill:#b0b0b0; stroke:none;" d="M2303 1180L2304 1181L2303 1180M2342 1180L2343 1181L2342 1180z"/>
<path style="fill:#ffffff; stroke:none;" d="M1637 1183L1638 1184L1637 1183z"/>
<path style="fill:#b0b0b0; stroke:none;" d="M1638 1186L1639 1187L1638 1186M1880 1187L1881 1188L1880 1187M2305 1187L2306 1188L2305 1187M2339 1191L2340 1192L2339 1191M2307 1194L2308 1195L2307 1194M2554 1194L2555 1195L2554 1194M1883 1198L1884 1199L1883 1198M1642 1200L1643 1201L1642 1200z"/>
<path style="fill:#7f7f7f; stroke:none;" d="M2309 1201L2310 1202L2309 1201z"/>
<path style="fill:#b0b0b0; stroke:none;" d="M2336 1202L2337 1203L2336 1202M1910 1205L1911 1206L1910 1205M1644 1207L1645 1208L1644 1207z"/>
<path style="fill:#ffffff; stroke:none;" d="M2311 1208L2312 1209L2311 1208z"/>
<path style="fill:#7f7f7f; stroke:none;" d="M2550 1208L2551 1209L2550 1208z"/>
<path style="fill:#b0b0b0; stroke:none;" d="M1886 1209L1887 1210L1886 1209M1186 1210L1187 1211L1186 1210M1184 1211L1185 1212L1184 1211M1182 1212L1183 1213L1182 1212M2312 1212L2313 1213L2312 1212M1180 1213L1181 1214L1180 1213M2333 1213L2334 1214L2333 1213M1178 1214L1179 1215L1178 1214z"/>
<path style="fill:#ffffff; stroke:none;" d="M1646 1214L1647 1215L1646 1214z"/>
<path style="fill:#b0b0b0; stroke:none;" d="M1176 1215L1177 1216L1176 1215M1174 1216L1175 1217L1174 1216M1172 1217L1173 1218L1172 1217M1647 1217L1648 1218L1647 1217M1170 1218L1171 1219L1170 1218M1168 1219L1169 1220L1168 1219M2314 1219L2315 1220L2314 1219M1166 1220L1167 1221L1166 1220M1889 1220L1890 1221L1889 1220M1164 1221L1165 1222L1164 1221M1162 1222L1163 1223L1162 1222M1160 1223L1161 1224L1160 1223M1158 1224L1159 1225L1158 1224M2330 1224L2331 1225L2330 1224M1156 1225L1157 1226L1156 1225M2545 1225L2546 1226L2545 1225M1154 1226L1155 1227L1154 1226M1904 1226L1905 1227L1904 1226M1152 1227L1153 1228L1152 1227M1150 1228L1151 1229L1150 1228M1148 1229L1149 1230L1148 1229M1146 1230L1147 1231L1146 1230M1144 1231L1145 1232L1144 1231M1651 1231L1652 1232L1651 1231M1142 1232L1143 1233L1142 1232M1140 1233L1141 1234L1140 1233M1138 1234L1139 1235L1138 1234M1892 1234L1893 1235L1892 1234M1653 1238L1654 1239L1653 1238z"/>
<path style="fill:#7f7f7f; stroke:none;" d="M2541 1239L2542 1240L2541 1239z"/>
<path style="fill:#b0b0b0; stroke:none;" d="M1893 1242L1894 1243L1893 1242z"/>
<path style="fill:#ffffff; stroke:none;" d="M1655 1245L1656 1246L1655 1245z"/>
<path style="fill:#b0b0b0; stroke:none;" d="M1656 1248L1657 1249L1656 1248M1894 1250L1895 1251L1894 1250M2536 1256L2537 1257L2536 1256M1895 1258L1896 1259L1895 1258M1660 1262L1661 1263L1660 1262M1896 1266L1897 1267L1896 1266M2102 1266L2103 1267L2102 1266M1662 1269L1663 1270L1662 1269z"/>
<path style="fill:#7f7f7f; stroke:none;" d="M2532 1270L2533 1271L2532 1270z"/>
<path style="fill:#b0b0b0; stroke:none;" d="M1898 1271L1899 1272L1898 1271M2103 1273L2104 1274L2103 1273M1897 1274L1898 1275L1897 1274z"/>
<path style="fill:#ffffff; stroke:none;" d="M1664 1276L1665 1277L1664 1276z"/>
<path style="fill:#b0b0b0; stroke:none;" d="M2090 1278L2091 1279L2090 1278M1665 1279L1666 1280L1665 1279M2527 1287L2528 1288L2527 1287M1669 1293L1670 1294L1669 1293M2110 1298L2111 1299L2110 1298M2084 1299L2085 1300L2084 1299M1671 1300L1672 1301L1671 1300z"/>
<path style="fill:#7f7f7f; stroke:none;" d="M2523 1301L2524 1302L2523 1301z"/>
<path style="fill:#ffffff; stroke:none;" d="M1673 1307L1674 1308L1673 1307z"/>
<path style="fill:#b0b0b0; stroke:none;" d="M1674 1310L1675 1311L1674 1310M2114 1312L2115 1313L2114 1312M2080 1313L2081 1314L2080 1313M2518 1318L2519 1319L2518 1318z"/>
<path style="fill:#7f7f7f; stroke:none;" d="M2078 1320L2079 1321L2078 1320z"/>
<path style="fill:#b0b0b0; stroke:none;" d="M1678 1324L1679 1325L1678 1324M2118 1326L2119 1327L2118 1326z"/>
<path style="fill:#7f7f7f; stroke:none;" d="M2076 1327L2077 1328L2076 1327z"/>
<path style="fill:#b0b0b0; stroke:none;" d="M1680 1331L1681 1332L1680 1331z"/>
<path style="fill:#7f7f7f; stroke:none;" d="M2514 1332L2515 1333L2514 1332M2120 1333L2121 1334L2120 1333z"/>
<path style="fill:#ffffff; stroke:none;" d="M2074 1334L2075 1335L2074 1334M1682 1338L1683 1339L1682 1338M2122 1340L2123 1341L2122 1340z"/>
<path style="fill:#b0b0b0; stroke:none;" d="M1683 1341L1684 1342L1683 1341z"/>
<path style="fill:#ffffff; stroke:none;" d="M2124 1347L2125 1348L2124 1347z"/>
<path style="fill:#b0b0b0; stroke:none;" d="M2509 1349L2510 1350L2509 1349M2069 1351L2070 1352L2069 1351M1687 1355L1688 1356L1687 1355M1689 1362L1690 1363L1689 1362z"/>
<path style="fill:#7f7f7f; stroke:none;" d="M2505 1363L2506 1364L2505 1363z"/>
<path style="fill:#ffffff; stroke:none;" d="M1691 1369L1692 1370L1691 1369z"/>
<path style="fill:#b0b0b0; stroke:none;" d="M2131 1371L2132 1372L2131 1371M1692 1372L1693 1373L1692 1372M2063 1372L2064 1373L2063 1372M2500 1380L2501 1381L2500 1380M2135 1385L2136 1386L2135 1385M1696 1386L1697 1387L1696 1386M2059 1386L2060 1387L2059 1386z"/>
<path style="fill:#ffffff; stroke:none;" d="M1354 1388L1355 1389L1354 1388z"/>
<path style="fill:#b0b0b0; stroke:none;" d="M1698 1393L1699 1394L1698 1393z"/>
<path style="fill:#7f7f7f; stroke:none;" d="M2057 1393L2058 1394L2057 1393M2496 1394L2497 1395L2496 1394z"/>
<path style="fill:#b0b0b0; stroke:none;" d="M2139 1399L2140 1400L2139 1399z"/>
<path style="fill:#ffffff; stroke:none;" d="M1700 1400L1701 1401L1700 1400z"/>
<path style="fill:#7f7f7f; stroke:none;" d="M2055 1400L2056 1401L2055 1400z"/>
<path style="fill:#b0b0b0; stroke:none;" d="M1701 1403L1702 1404L1701 1403z"/>
<path style="fill:#7f7f7f; stroke:none;" d="M2141 1406L2142 1407L2141 1406z"/>
<path style="fill:#ffffff; stroke:none;" d="M1361 1407L1362 1408L1361 1407M2053 1407L2054 1408L2053 1407z"/>
<path style="fill:#b0b0b0; stroke:none;" d="M2491 1411L2492 1412L2491 1411z"/>
<path style="fill:#ffffff; stroke:none;" d="M2143 1413L2144 1414L2143 1413z"/>
<path style="fill:#b0b0b0; stroke:none;" d="M1705 1417L1706 1418L1705 1417z"/>
<path style="fill:#ffffff; stroke:none;" d="M2145 1420L2146 1421L2145 1420z"/>
<path style="fill:#b0b0b0; stroke:none;" d="M1707 1424L1708 1425L1707 1424z"/>
<path style="fill:#7f7f7f; stroke:none;" d="M2487 1425L2488 1426L2487 1425M1368 1426L1369 1427L1368 1426M2994 1429L2995 1430L2994 1429z"/>
<path style="fill:#ffffff; stroke:none;" d="M1709 1431L1710 1432L1709 1431z"/>
<path style="fill:#7f7f7f; stroke:none;" d="M2995 1431L2996 1432L2995 1431M2996 1433L2997 1434L2996 1433z"/>
<path style="fill:#b0b0b0; stroke:none;" d="M1710 1434L1711 1435L1710 1434z"/>
<path style="fill:#7f7f7f; stroke:none;" d="M2997 1435L2998 1436L2997 1435M2998 1437L2999 1438L2998 1437M2999 1439L3000 1440L2999 1439M3000 1441L3001 1442L3000 1441z"/>
<path style="fill:#b0b0b0; stroke:none;" d="M1028 1442L1028 1443L1098 1443L1076 1442L1028 1442M2482 1442L2483 1443L2482 1442z"/>
<path style="fill:#7f7f7f; stroke:none;" d="M3001 1443L3002 1444L3001 1443z"/>
<path style="fill:#b0b0b0; stroke:none;" d="M2152 1444L2153 1445L2152 1444z"/>
<path style="fill:#7f7f7f; stroke:none;" d="M1375 1445L1376 1446L1375 1445z"/>
<path style="fill:#b0b0b0; stroke:none;" d="M2042 1445L2043 1446L2042 1445z"/>
<path style="fill:#ffffff; stroke:none;" d="M3002 1445L3003 1446L3002 1445M3003 1447L3004 1448L3003 1447z"/>
<path style="fill:#b0b0b0; stroke:none;" d="M1714 1448L1715 1449L1714 1448z"/>
<path style="fill:#ffffff; stroke:none;" d="M3004 1449L3005 1450L3004 1449M3005 1451L3006 1452L3005 1451M3006 1453L3007 1454L3006 1453z"/>
<path style="fill:#b0b0b0; stroke:none;" d="M1716 1455L1717 1456L1716 1455z"/>
<path style="fill:#ffffff; stroke:none;" d="M3007 1455L3008 1456L3007 1455z"/>
<path style="fill:#7f7f7f; stroke:none;" d="M2478 1456L2479 1457L2478 1456z"/>
<path style="fill:#ffffff; stroke:none;" d="M1124 1457L1125 1458L1124 1457M3008 1457L3009 1458L3008 1457z"/>
<path style="fill:#b0b0b0; stroke:none;" d="M2156 1458L2157 1459L2156 1458M2038 1459L2039 1460L2038 1459z"/>
<path style="fill:#ffffff; stroke:none;" d="M3009 1459L3010 1460L3009 1459M1125 1460L1126 1461L1125 1460M3010 1461L3011 1462L3010 1461M1718 1462L1719 1463L1718 1462M1126 1463L1127 1464L1126 1463M3011 1463L3012 1464L3011 1463z"/>
<path style="fill:#7f7f7f; stroke:none;" d="M1382 1464L1383 1465L1382 1464z"/>
<path style="fill:#b0b0b0; stroke:none;" d="M1719 1465L1720 1466L1719 1465z"/>
<path style="fill:#ffffff; stroke:none;" d="M3012 1465L3013 1466L3012 1465M1127 1466L1128 1467L1127 1466z"/>
<path style="fill:#7f7f7f; stroke:none;" d="M2036 1466L2037 1467L2036 1466z"/>
<path style="fill:#ffffff; stroke:none;" d="M3013 1467L3014 1468L3013 1467M1128 1469L1129 1470L1128 1469M3014 1469L3015 1470L3014 1469M3015 1471L3016 1472L3015 1471M1129 1472L1130 1473L1129 1472z"/>
<path style="fill:#b0b0b0; stroke:none;" d="M2160 1472L2161 1473L2160 1472z"/>
<path style="fill:#ffffff; stroke:none;" d="M2034 1473L2035 1474L2034 1473z"/>
<path style="fill:#b0b0b0; stroke:none;" d="M2473 1473L2474 1474L2473 1473z"/>
<path style="fill:#ffffff; stroke:none;" d="M3016 1473L3017 1474L3016 1473M1130 1475L1131 1476L1130 1475M3017 1475L3018 1476L3017 1475M3018 1477L3019 1478L3018 1477M1131 1478L1132 1479L1131 1478z"/>
<path style="fill:#b0b0b0; stroke:none;" d="M1723 1479L1724 1480L1723 1479z"/>
<path style="fill:#7f7f7f; stroke:none;" d="M2162 1479L2163 1480L2162 1479z"/>
<path style="fill:#ffffff; stroke:none;" d="M3019 1479L3020 1480L3019 1479M2032 1480L2033 1481L2032 1480z"/>
<path style="fill:#b0b0b0; stroke:none;" d="M3357 1480L3358 1481L3357 1480z"/>
<path style="fill:#ffffff; stroke:none;" d="M1132 1481L1133 1482L1132 1481M3020 1481L3021 1482L3020 1481z"/>
<path style="fill:#b0b0b0; stroke:none;" d="M3354 1481L3355 1482L3354 1481M3351 1482L3352 1483L3351 1482M3358 1482L3359 1483L3358 1482z"/>
<path style="fill:#7f7f7f; stroke:none;" d="M1389 1483L1390 1484L1389 1483z"/>
<path style="fill:#ffffff; stroke:none;" d="M3021 1483L3022 1484L3021 1483z"/>
<path style="fill:#b0b0b0; stroke:none;" d="M3348 1483L3349 1484L3348 1483z"/>
<path style="fill:#ffffff; stroke:none;" d="M1133 1484L1134 1485L1133 1484z"/>
<path style="fill:#b0b0b0; stroke:none;" d="M3345 1484L3346 1485L3345 1484z"/>
<path style="fill:#ffffff; stroke:none;" d="M3022 1485L3023 1486L3022 1485z"/>
<path style="fill:#b0b0b0; stroke:none;" d="M3342 1485L3343 1486L3342 1485M3357 1485L3358 1486L3357 1485M1725 1486L1726 1487L1725 1486z"/>
<path style="fill:#ffffff; stroke:none;" d="M2164 1486L2165 1487L2164 1486z"/>
<path style="fill:#b0b0b0; stroke:none;" d="M3339 1486L3340 1487L3339 1486z"/>
<path style="fill:#ffffff; stroke:none;" d="M1134 1487L1135 1488L1134 1487z"/>
<path style="fill:#7f7f7f; stroke:none;" d="M2469 1487L2470 1488L2469 1487z"/>
<path style="fill:#ffffff; stroke:none;" d="M3023 1487L3024 1488L3023 1487z"/>
<path style="fill:#b0b0b0; stroke:none;" d="M3336 1487L3337 1488L3336 1487M3333 1488L3334 1489L3333 1488z"/>
<path style="fill:#ffffff; stroke:none;" d="M3024 1489L3025 1490L3024 1489z"/>
<path style="fill:#b0b0b0; stroke:none;" d="M3330 1489L3331 1490L3330 1489z"/>
<path style="fill:#ffffff; stroke:none;" d="M1135 1490L1136 1491L1135 1490z"/>
<path style="fill:#b0b0b0; stroke:none;" d="M3327 1490L3328 1491L3327 1490z"/>
<path style="fill:#ffffff; stroke:none;" d="M3025 1491L3026 1492L3025 1491z"/>
<path style="fill:#b0b0b0; stroke:none;" d="M3324 1491L3325 1492L3324 1491M3355 1491L3356 1492L3355 1491M3321 1492L3322 1493L3321 1492z"/>
<path style="fill:#ffffff; stroke:none;" d="M1136 1493L1137 1494L1136 1493M1727 1493L1728 1494L1727 1493M2166 1493L2167 1494L2166 1493z"/>
<path style="fill:#b0b0b0; stroke:none;" d="M3318 1493L3319 1494L3318 1493M3315 1494L3316 1495L3315 1494M3354 1494L3355 1495L3354 1494M3312 1495L3313 1496L3312 1495z"/>
<path style="fill:#ffffff; stroke:none;" d="M1137 1496L1138 1497L1137 1496z"/>
<path style="fill:#b0b0b0; stroke:none;" d="M1728 1496L1729 1497L1728 1496M3309 1496L3310 1497L3309 1496M3306 1497L3307 1498L3306 1497M3353 1497L3354 1498L3353 1497M3303 1498L3304 1499L3303 1498z"/>
<path style="fill:#ffffff; stroke:none;" d="M1138 1499L1139 1500L1138 1499z"/>
<path style="fill:#b0b0b0; stroke:none;" d="M3300 1499L3301 1500L3300 1499M3297 1500L3298 1501L3297 1500M3294 1501L3295 1502L3294 1501z"/>
<path style="fill:#ffffff; stroke:none;" d="M1139 1502L1140 1503L1139 1502z"/>
<path style="fill:#7f7f7f; stroke:none;" d="M1396 1502L1397 1503L1396 1502z"/>
<path style="fill:#b0b0b0; stroke:none;" d="M3291 1502L3292 1503L3291 1502M3288 1503L3289 1504L3288 1503M2025 1504L2026 1505L2025 1504M2464 1504L2465 1505L2464 1504M3285 1504L3286 1505L3285 1504z"/>
<path style="fill:#ffffff; stroke:none;" d="M1140 1505L1141 1506L1140 1505z"/>
<path style="fill:#b0b0b0; stroke:none;" d="M3282 1505L3283 1506L3282 1505M3279 1506L3280 1507L3279 1506M3276 1507L3277 1508L3276 1507z"/>
<path style="fill:#ffffff; stroke:none;" d="M1141 1508L1142 1509L1141 1508z"/>
<path style="fill:#b0b0b0; stroke:none;" d="M3273 1508L3274 1509L3273 1508M3270 1509L3271 1510L3270 1509M1732 1510L1733 1511L1732 1510M3267 1510L3268 1511L3267 1510z"/>
<path style="fill:#ffffff; stroke:none;" d="M1142 1511L1143 1512L1142 1511z"/>
<path style="fill:#b0b0b0; stroke:none;" d="M3264 1511L3265 1512L3264 1511M3261 1512L3262 1513L3261 1512M3348 1512L3349 1513L3348 1512M3258 1513L3259 1514L3258 1513z"/>
<path style="fill:#ffffff; stroke:none;" d="M1143 1514L1144 1515L1143 1514z"/>
<path style="fill:#b0b0b0; stroke:none;" d="M3255 1514L3256 1515L3255 1514M3252 1515L3253 1516L3252 1515M3249 1516L3250 1517L3249 1516z"/>
<path style="fill:#ffffff; stroke:none;" d="M1144 1517L1145 1518L1144 1517z"/>
<path style="fill:#b0b0b0; stroke:none;" d="M1734 1517L1735 1518L1734 1517M2173 1517L2174 1518L2173 1517M3246 1517L3247 1518L3246 1517M2021 1518L2022 1519L2021 1518z"/>
<path style="fill:#7f7f7f; stroke:none;" d="M2460 1518L2461 1519L2460 1518z"/>
<path style="fill:#b0b0b0; stroke:none;" d="M3243 1518L3244 1519L3243 1518M3240 1519L3241 1520L3240 1519z"/>
<path style="fill:#ffffff; stroke:none;" d="M1145 1520L1146 1521L1145 1520z"/>
<path style="fill:#b0b0b0; stroke:none;" d="M3237 1520L3238 1521L3237 1520z"/>
<path style="fill:#7f7f7f; stroke:none;" d="M1403 1521L1404 1522L1403 1521z"/>
<path style="fill:#b0b0b0; stroke:none;" d="M3234 1521L3235 1522L3234 1521M3231 1522L3232 1523L3231 1522z"/>
<path style="fill:#ffffff; stroke:none;" d="M1146 1523L1147 1524L1146 1523z"/>
<path style="fill:#b0b0b0; stroke:none;" d="M3228 1523L3229 1524L3228 1523z"/>
<path style="fill:#ffffff; stroke:none;" d="M1736 1524L1737 1525L1736 1524z"/>
<path style="fill:#b0b0b0; stroke:none;" d="M3225 1524L3226 1525L3225 1524M3222 1525L3223 1526L3222 1525z"/>
<path style="fill:#ffffff; stroke:none;" d="M1147 1526L1148 1527L1147 1526z"/>
<path style="fill:#b0b0b0; stroke:none;" d="M3219 1526L3220 1527L3219 1526M1737 1527L1738 1528L1737 1527M3216 1527L3217 1528L3216 1527M3343 1527L3344 1528L3343 1527M3213 1528L3214 1529L3213 1528z"/>
<path style="fill:#ffffff; stroke:none;" d="M1148 1529L1149 1530L1148 1529z"/>
<path style="fill:#b0b0b0; stroke:none;" d="M3210 1529L3211 1530L3210 1529M3207 1530L3208 1531L3207 1530M2177 1531L2178 1532L2177 1531M3204 1531L3205 1532L3204 1531z"/>
<path style="fill:#ffffff; stroke:none;" d="M1149 1532L1150 1533L1149 1532z"/>
<path style="fill:#b0b0b0; stroke:none;" d="M2017 1532L2018 1533L2017 1532z"/>
<path style="fill:#ffffff; stroke:none;" d="M1150 1535L1151 1536L1150 1535z"/>
<path style="fill:#b0b0b0; stroke:none;" d="M2455 1535L2456 1536L2455 1535z"/>
<path style="fill:#ffffff; stroke:none;" d="M1151 1538L1152 1539L1151 1538z"/>
<path style="fill:#b0b0b0; stroke:none;" d="M2179 1538L2180 1539L2179 1538z"/>
<path style="fill:#7f7f7f; stroke:none;" d="M2015 1539L2016 1540L2015 1539z"/>
<path style="fill:#b0b0b0; stroke:none;" d="M3339 1539L3340 1540L3339 1539z"/>
<path style="fill:#7f7f7f; stroke:none;" d="M1410 1540L1411 1541L1410 1540z"/>
<path style="fill:#ffffff; stroke:none;" d="M1152 1541L1153 1542L1152 1541z"/>
<path style="fill:#b0b0b0; stroke:none;" d="M1741 1541L1742 1542L1741 1541z"/>
<path style="fill:#ffffff; stroke:none;" d="M1153 1544L1154 1545L1153 1544z"/>
<path style="fill:#b0b0b0; stroke:none;" d="M2181 1545L2182 1546L2181 1545z"/>
<path style="fill:#ffffff; stroke:none;" d="M2013 1546L2014 1547L2013 1546M1154 1547L1155 1548L1154 1547z"/>
<path style="fill:#b0b0b0; stroke:none;" d="M1743 1548L1744 1549L1743 1548z"/>
<path style="fill:#7f7f7f; stroke:none;" d="M2451 1549L2452 1550L2451 1549z"/>
<path style="fill:#ffffff; stroke:none;" d="M1155 1550L1156 1551L1155 1550z"/>
<path style="fill:#b0b0b0; stroke:none;" d="M1414 1551L1415 1552L1414 1551z"/>
<path style="fill:#7f7f7f; stroke:none;" d="M2183 1552L2184 1553L2183 1552z"/>
<path style="fill:#ffffff; stroke:none;" d="M1156 1553L1157 1554L1156 1553M2011 1553L2012 1554L2011 1553M1745 1555L1746 1556L1745 1555M1157 1556L1158 1557L1157 1556M1158 1559L1159 1560L1158 1559z"/>
<path style="fill:#7f7f7f; stroke:none;" d="M1417 1559L1418 1560L1417 1559z"/>
<path style="fill:#ffffff; stroke:none;" d="M2185 1559L2186 1560L2185 1559M1159 1562L1160 1563L1159 1562M1160 1565L1161 1566L1160 1565z"/>
<path style="fill:#b0b0b0; stroke:none;" d="M2729 1565L2730 1566L2729 1565z"/>
<path style="fill:#ffffff; stroke:none;" d="M2187 1566L2188 1567L2187 1566z"/>
<path style="fill:#b0b0b0; stroke:none;" d="M2446 1566L2447 1567L2446 1566M2730 1566L2731 1567L2730 1566M2731 1567L2732 1568L2731 1567z"/>
<path style="fill:#ffffff; stroke:none;" d="M1161 1568L1162 1569L1161 1568z"/>
<path style="fill:#b0b0b0; stroke:none;" d="M2732 1568L2733 1569L2732 1568M2188 1569L2189 1570L2188 1569M2733 1569L2734 1570L2733 1569M1421 1570L1422 1571L1421 1570M2734 1570L2735 1571L2734 1570z"/>
<path style="fill:#ffffff; stroke:none;" d="M1162 1571L1163 1572L1162 1571z"/>
<path style="fill:#b0b0b0; stroke:none;" d="M2735 1571L2736 1572L2735 1571M1750 1572L1751 1573L1750 1572M2736 1572L2737 1573L2736 1572M2737 1573L2738 1574L2737 1573z"/>
<path style="fill:#ffffff; stroke:none;" d="M1163 1574L1164 1575L1163 1574z"/>
<path style="fill:#b0b0b0; stroke:none;" d="M2738 1574L2739 1575L2738 1574M2739 1575L2740 1576L2739 1575M2740 1576L2741 1577L2740 1576z"/>
<path style="fill:#ffffff; stroke:none;" d="M1164 1577L1165 1578L1164 1577z"/>
<path style="fill:#b0b0b0; stroke:none;" d="M2004 1577L2005 1578L2004 1577M2741 1577L2742 1578L2741 1577z"/>
<path style="fill:#7f7f7f; stroke:none;" d="M1424 1578L1425 1579L1424 1578z"/>
<path style="fill:#b0b0b0; stroke:none;" d="M2742 1578L2743 1579L2742 1578M1752 1579L1753 1580L1752 1579M2743 1579L2744 1580L2743 1579z"/>
<path style="fill:#ffffff; stroke:none;" d="M1165 1580L1166 1581L1165 1580z"/>
<path style="fill:#7f7f7f; stroke:none;" d="M2442 1580L2443 1581L2442 1580z"/>
<path style="fill:#b0b0b0; stroke:none;" d="M2744 1580L2745 1581L2744 1580M2745 1581L2746 1582L2745 1581M2746 1582L2747 1583L2746 1582z"/>
<path style="fill:#ffffff; stroke:none;" d="M1166 1583L1167 1584L1166 1583z"/>
<path style="fill:#b0b0b0; stroke:none;" d="M2747 1583L2748 1584L2747 1583M2748 1584L2749 1585L2748 1584M2749 1585L2750 1586L2749 1585z"/>
<path style="fill:#ffffff; stroke:none;" d="M1167 1586L1168 1587L1167 1586M1754 1586L1755 1587L1754 1586z"/>
<path style="fill:#b0b0b0; stroke:none;" d="M2750 1586L2751 1587L2750 1586z"/>
<path style="fill:#ffffff; stroke:none;" d="M2440 1587L2441 1588L2440 1587z"/>
<path style="fill:#b0b0b0; stroke:none;" d="M2751 1587L2752 1588L2751 1587M2752 1588L2753 1589L2752 1588z"/>
<path style="fill:#ffffff; stroke:none;" d="M1168 1589L1169 1590L1168 1589z"/>
<path style="fill:#b0b0b0; stroke:none;" d="M1428 1589L1429 1590L1428 1589M2753 1589L2754 1590L2753 1589M2194 1590L2195 1591L2194 1590M2754 1590L2755 1591L2754 1590M2000 1591L2001 1592L2000 1591M2755 1591L2756 1592L2755 1591z"/>
<path style="fill:#ffffff; stroke:none;" d="M1169 1592L1170 1593L1169 1592z"/>
<path style="fill:#b0b0b0; stroke:none;" d="M2756 1592L2757 1593L2756 1592M2757 1593L2758 1594L2757 1593M2758 1594L2759 1595L2758 1594z"/>
<path style="fill:#ffffff; stroke:none;" d="M1170 1595L1171 1596L1170 1595z"/>
<path style="fill:#b0b0b0; stroke:none;" d="M2759 1595L2760 1596L2759 1595M2760 1596L2761 1597L2760 1596z"/>
<path style="fill:#7f7f7f; stroke:none;" d="M1431 1597L1432 1598L1431 1597z"/>
<path style="fill:#b0b0b0; stroke:none;" d="M2437 1597L2438 1598L2437 1597M2761 1597L2762 1598L2761 1597z"/>
<path style="fill:#ffffff; stroke:none;" d="M1171 1598L1172 1599L1171 1598z"/>
<path style="fill:#b0b0b0; stroke:none;" d="M2762 1598L2763 1599L2762 1598M2763 1599L2764 1600L2763 1599M2764 1600L2765 1601L2764 1600z"/>
<path style="fill:#ffffff; stroke:none;" d="M1172 1601L1173 1602L1172 1601z"/>
<path style="fill:#b0b0b0; stroke:none;" d="M2765 1601L2766 1602L2765 1601M2766 1602L2767 1603L2766 1602M1759 1603L1760 1604L1759 1603M2767 1603L2768 1604L2767 1603z"/>
<path style="fill:#ffffff; stroke:none;" d="M1173 1604L1174 1605L1173 1604z"/>
<path style="fill:#b0b0b0; stroke:none;" d="M2198 1604L2199 1605L2198 1604M2768 1604L2769 1605L2768 1604M1996 1605L1997 1606L1996 1605M2769 1605L2770 1606L2769 1605M2770 1606L2771 1607L2770 1606z"/>
<path style="fill:#ffffff; stroke:none;" d="M1174 1607L1175 1608L1174 1607z"/>
<path style="fill:#b0b0b0; stroke:none;" d="M2771 1607L2772 1608L2771 1607M1435 1608L1436 1609L1435 1608M2772 1608L2773 1609L2772 1608M2773 1609L2774 1610L2773 1609z"/>
<path style="fill:#ffffff; stroke:none;" d="M1175 1610L1176 1611L1175 1610z"/>
<path style="fill:#b0b0b0; stroke:none;" d="M1761 1610L1762 1611L1761 1610M2774 1610L2775 1611L2774 1610M2200 1611L2201 1612L2200 1611z"/>
<path style="fill:#7f7f7f; stroke:none;" d="M2433 1611L2434 1612L2433 1611z"/>
<path style="fill:#b0b0b0; stroke:none;" d="M2775 1611L2776 1612L2775 1611z"/>
<path style="fill:#7f7f7f; stroke:none;" d="M1994 1612L1995 1613L1994 1612z"/>
<path style="fill:#b0b0b0; stroke:none;" d="M2776 1612L2777 1613L2776 1612z"/>
<path style="fill:#ffffff; stroke:none;" d="M1176 1613L1177 1614L1176 1613z"/>
<path style="fill:#b0b0b0; stroke:none;" d="M2777 1613L2778 1614L2777 1613M2778 1614L2779 1615L2778 1614M2779 1615L2780 1616L2779 1615z"/>
<path style="fill:#ffffff; stroke:none;" d="M1177 1616L1178 1617L1177 1616z"/>
<path style="fill:#7f7f7f; stroke:none;" d="M1438 1616L1439 1617L1438 1616z"/>
<path style="fill:#b0b0b0; stroke:none;" d="M2780 1616L2781 1617L2780 1616z"/>
<path style="fill:#ffffff; stroke:none;" d="M1763 1617L1764 1618L1763 1617z"/>
<path style="fill:#b0b0b0; stroke:none;" d="M2781 1617L2782 1618L2781 1617M2202 1618L2203 1619L2202 1618z"/>
<path style="fill:#ffffff; stroke:none;" d="M2431 1618L2432 1619L2431 1618z"/>
<path style="fill:#b0b0b0; stroke:none;" d="M2782 1618L2783 1619L2782 1618z"/>
<path style="fill:#ffffff; stroke:none;" d="M1178 1619L1179 1620L1178 1619M1992 1619L1993 1620L1992 1619z"/>
<path style="fill:#b0b0b0; stroke:none;" d="M2783 1619L2784 1620L2783 1619M2784 1620L2785 1621L2784 1620M2785 1621L2786 1622L2785 1621z"/>
<path style="fill:#ffffff; stroke:none;" d="M1179 1622L1180 1623L1179 1622z"/>
<path style="fill:#b0b0b0; stroke:none;" d="M2786 1622L2787 1623L2786 1622M2787 1623L2788 1624L2787 1623M2788 1624L2789 1625L2788 1624z"/>
<path style="fill:#ffffff; stroke:none;" d="M1180 1625L1181 1626L1180 1625z"/>
<path style="fill:#b0b0b0; stroke:none;" d="M1442 1625L1443 1626L1442 1625z"/>
<path style="fill:#7f7f7f; stroke:none;" d="M2204 1625L2205 1626L2204 1625z"/>
<path style="fill:#b0b0b0; stroke:none;" d="M2789 1625L2790 1626L2789 1625z"/>
<path style="fill:#ffffff; stroke:none;" d="M1990 1626L1991 1627L1990 1626z"/>
<path style="fill:#b0b0b0; stroke:none;" d="M2790 1626L2791 1627L2790 1626M2791 1627L2792 1628L2791 1627z"/>
<path style="fill:#ffffff; stroke:none;" d="M1181 1628L1182 1629L1181 1628z"/>
<path style="fill:#b0b0b0; stroke:none;" d="M2428 1628L2429 1629L2428 1628M2792 1628L2793 1629L2792 1628M2793 1629L2794 1630L2793 1629M2794 1630L2795 1631L2794 1630z"/>
<path style="fill:#ffffff; stroke:none;" d="M1182 1631L1183 1632L1182 1631z"/>
<path style="fill:#b0b0b0; stroke:none;" d="M2795 1631L2796 1632L2795 1631M1446 1632L1447 1633L1446 1632z"/>
<path style="fill:#ffffff; stroke:none;" d="M2206 1632L2207 1633L2206 1632z"/>
<path style="fill:#b0b0b0; stroke:none;" d="M2796 1632L2797 1633L2796 1632M2797 1633L2798 1634L2797 1633z"/>
<path style="fill:#ffffff; stroke:none;" d="M1183 1634L1184 1635L1183 1634z"/>
<path style="fill:#b0b0b0; stroke:none;" d="M1768 1634L1769 1635L1768 1634M2798 1634L2799 1635L2798 1634M2799 1635L2800 1636L2799 1635M2800 1636L2801 1637L2800 1636z"/>
<path style="fill:#ffffff; stroke:none;" d="M1184 1637L1185 1638L1184 1637M1449 1637L1450 1638L1449 1637z"/>
<path style="fill:#b0b0b0; stroke:none;" d="M2801 1637L2802 1638L2801 1637M2802 1638L2803 1639L2802 1638z"/>
<path style="fill:#ffffff; stroke:none;" d="M2208 1639L2209 1640L2208 1639z"/>
<path style="fill:#b0b0b0; stroke:none;" d="M2803 1639L2804 1640L2803 1639z"/>
<path style="fill:#ffffff; stroke:none;" d="M1185 1640L1186 1641L1185 1640z"/>
<path style="fill:#b0b0b0; stroke:none;" d="M2804 1640L2805 1641L2804 1640M1770 1641L1771 1642L1770 1641M2805 1641L2806 1642L2805 1641M2209 1642L2210 1643L2209 1642z"/>
<path style="fill:#7f7f7f; stroke:none;" d="M2424 1642L2425 1643L2424 1642z"/>
<path style="fill:#b0b0b0; stroke:none;" d="M2806 1642L2807 1643L2806 1642z"/>
<path style="fill:#ffffff; stroke:none;" d="M1186 1643L1187 1644L1186 1643z"/>
<path style="fill:#b0b0b0; stroke:none;" d="M2807 1643L2808 1644L2807 1643M1453 1644L1454 1645L1453 1644M2808 1644L2809 1645L2808 1644M2809 1645L2810 1646L2809 1645z"/>
<path style="fill:#ffffff; stroke:none;" d="M1187 1646L1188 1647L1187 1646z"/>
<path style="fill:#b0b0b0; stroke:none;" d="M2810 1646L2811 1647L2810 1646M2811 1647L2812 1648L2811 1647z"/>
<path style="fill:#ffffff; stroke:none;" d="M1772 1648L1773 1649L1772 1648z"/>
<path style="fill:#b0b0b0; stroke:none;" d="M2812 1648L2813 1649L2812 1648z"/>
<path style="fill:#ffffff; stroke:none;" d="M1188 1649L1189 1650L1188 1649M2422 1649L2423 1650L2422 1649z"/>
<path style="fill:#b0b0b0; stroke:none;" d="M2813 1649L2814 1650L2813 1649M1983 1650L1984 1651L1983 1650M2814 1650L2815 1651L2814 1650M1457 1651L1458 1652L1457 1651M2815 1651L2816 1652L2815 1651z"/>
<path style="fill:#ffffff; stroke:none;" d="M1189 1652L1190 1653L1189 1652z"/>
<path style="fill:#b0b0b0; stroke:none;" d="M2816 1652L2817 1653L2816 1652z"/>
<path style="fill:#7f7f7f; stroke:none;" d="M765 1653L766 1654L765 1653z"/>
<path style="fill:#b0b0b0; stroke:none;" d="M2817 1653L2818 1654L2817 1653M2818 1654L2819 1655L2818 1654z"/>
<path style="fill:#ffffff; stroke:none;" d="M3301 1654L3302 1655L3301 1654z"/>
<path style="fill:#7f7f7f; stroke:none;" d="M1019 1655L1020 1656L1019 1655z"/>
<path style="fill:#ffffff; stroke:none;" d="M1190 1655L1191 1656L1190 1655z"/>
<path style="fill:#b0b0b0; stroke:none;" d="M2819 1655L2820 1656L2819 1655M2820 1656L2821 1657L2820 1656M2821 1657L2822 1658L2821 1657z"/>
<path style="fill:#ffffff; stroke:none;" d="M3300 1657L3301 1658L3300 1657M1191 1658L1192 1659L1191 1658z"/>
<path style="fill:#b0b0b0; stroke:none;" d="M2822 1658L2823 1659L2822 1658M2419 1659L2420 1660L2419 1659M2823 1659L2824 1660L2823 1659M2824 1660L2825 1661L2824 1660z"/>
<path style="fill:#ffffff; stroke:none;" d="M3299 1660L3300 1661L3299 1660M1192 1661L1193 1662L1192 1661z"/>
<path style="fill:#b0b0b0; stroke:none;" d="M2825 1661L2826 1662L2825 1661M2826 1662L2827 1663L2826 1662M1464 1663L1465 1664L1464 1663M2215 1663L2216 1664L2215 1663M2827 1663L2828 1664L2827 1663z"/>
<path style="fill:#ffffff; stroke:none;" d="M3298 1663L3299 1664L3298 1663M1193 1664L1194 1665L1193 1664z"/>
<path style="fill:#b0b0b0; stroke:none;" d="M1979 1664L1980 1665L1979 1664M2828 1664L2829 1665L2828 1664M1777 1665L1778 1666L1777 1665M2829 1665L2830 1666L2829 1665M2830 1666L2831 1667L2830 1666z"/>
<path style="fill:#7f7f7f; stroke:none;" d="M3297 1666L3298 1667L3297 1666z"/>
<path style="fill:#ffffff; stroke:none;" d="M1194 1667L1195 1668L1194 1667z"/>
<path style="fill:#b0b0b0; stroke:none;" d="M2831 1667L2832 1668L2831 1667M2832 1668L2833 1669L2832 1668z"/>
<path style="fill:#7f7f7f; stroke:none;" d="M760 1669L761 1670L760 1669z"/>
<path style="fill:#b0b0b0; stroke:none;" d="M2833 1669L2834 1670L2833 1669z"/>
<path style="fill:#7f7f7f; stroke:none;" d="M3296 1669L3297 1670L3296 1669z"/>
<path style="fill:#ffffff; stroke:none;" d="M1195 1670L1196 1671L1195 1670z"/>
<path style="fill:#b0b0b0; stroke:none;" d="M1468 1670L1469 1671L1468 1670M2834 1670L2835 1671L2834 1670z"/>
<path style="fill:#7f7f7f; stroke:none;" d="M1024 1671L1025 1672L1024 1671z"/>
<path style="fill:#b0b0b0; stroke:none;" d="M2835 1671L2836 1672L2835 1671M1779 1672L1780 1673L1779 1672M2836 1672L2837 1673L2836 1672z"/>
<path style="fill:#7f7f7f; stroke:none;" d="M3295 1672L3296 1673L3295 1672M1196 1673L1197 1674L1196 1673M2415 1673L2416 1674L2415 1673z"/>
<path style="fill:#b0b0b0; stroke:none;" d="M2837 1673L2838 1674L2837 1673M2838 1674L2839 1675L2838 1674M2839 1675L2840 1676L2839 1675M3294 1675L3295 1676L3294 1675z"/>
<path style="fill:#7f7f7f; stroke:none;" d="M1197 1676L1198 1677L1197 1676z"/>
<path style="fill:#b0b0b0; stroke:none;" d="M2840 1676L2841 1677L2840 1676M2219 1677L2220 1678L2219 1677M2841 1677L2842 1678L2841 1677M1975 1678L1976 1679L1975 1678M2842 1678L2843 1679L2842 1678M3293 1678L3294 1679L3293 1678z"/>
<path style="fill:#7f7f7f; stroke:none;" d="M1198 1679L1199 1680L1198 1679z"/>
<path style="fill:#ffffff; stroke:none;" d="M1781 1679L1782 1680L1781 1679z"/>
<path style="fill:#b0b0b0; stroke:none;" d="M2843 1679L2844 1680L2843 1679z"/>
<path style="fill:#ffffff; stroke:none;" d="M2413 1680L2414 1681L2413 1680z"/>
<path style="fill:#b0b0b0; stroke:none;" d="M2844 1680L2845 1681L2844 1680M2845 1681L2846 1682L2845 1681M3292 1681L3293 1682L3292 1681M756 1682L757 1683L756 1682z"/>
<path style="fill:#7f7f7f; stroke:none;" d="M1199 1682L1200 1683L1199 1682z"/>
<path style="fill:#b0b0b0; stroke:none;" d="M1475 1682L1476 1683L1475 1682M2846 1682L2847 1683L2846 1682M2847 1683L2848 1684L2847 1683M2221 1684L2222 1685L2221 1684M2848 1684L2849 1685L2848 1684M3291 1684L3292 1685L3291 1684M755 1685L756 1686L755 1685z"/>
<path style="fill:#7f7f7f; stroke:none;" d="M1200 1685L1201 1686L1200 1685M1973 1685L1974 1686L1973 1685z"/>
<path style="fill:#b0b0b0; stroke:none;" d="M2849 1685L2850 1686L2849 1685M2850 1686L2851 1687L2850 1686z"/>
<path style="fill:#7f7f7f; stroke:none;" d="M1029 1687L1030 1688L1029 1687z"/>
<path style="fill:#b0b0b0; stroke:none;" d="M2851 1687L2852 1688L2851 1687M3290 1687L3291 1688L3290 1687z"/>
<path style="fill:#7f7f7f; stroke:none;" d="M1201 1688L1202 1689L1201 1688z"/>
<path style="fill:#b0b0b0; stroke:none;" d="M2852 1688L2853 1689L2852 1688M1479 1689L1480 1690L1479 1689M2853 1689L2854 1690L2853 1689M2410 1690L2411 1691L2410 1690M2854 1690L2855 1691L2854 1690M3289 1690L3290 1691L3289 1690z"/>
<path style="fill:#7f7f7f; stroke:none;" d="M1202 1691L1203 1692L1202 1691z"/>
<path style="fill:#b0b0b0; stroke:none;" d="M2223 1691L2224 1692L2223 1691M2855 1691L2856 1692L2855 1691z"/>
<path style="fill:#ffffff; stroke:none;" d="M1971 1692L1972 1693L1971 1692z"/>
<path style="fill:#b0b0b0; stroke:none;" d="M2856 1692L2857 1693L2856 1692M2857 1693L2858 1694L2857 1693z"/>
<path style="fill:#7f7f7f; stroke:none;" d="M1203 1694L1204 1695L1203 1694z"/>
<path style="fill:#b0b0b0; stroke:none;" d="M2858 1694L2859 1695L2858 1694M2859 1695L2860 1696L2859 1695M2860 1696L2861 1697L2860 1696M1032 1697L1033 1698L1032 1697z"/>
<path style="fill:#7f7f7f; stroke:none;" d="M1204 1697L1205 1698L1204 1697z"/>
<path style="fill:#b0b0b0; stroke:none;" d="M2861 1697L2862 1698L2861 1697M751 1698L752 1699L751 1698z"/>
<path style="fill:#7f7f7f; stroke:none;" d="M2225 1698L2226 1699L2225 1698z"/>
<path style="fill:#b0b0b0; stroke:none;" d="M2862 1698L2863 1699L2862 1698z"/>
<path style="fill:#ffffff; stroke:none;" d="M1969 1699L1970 1700L1969 1699z"/>
<path style="fill:#b0b0b0; stroke:none;" d="M2863 1699L2864 1700L2863 1699M3286 1699L3287 1700L3286 1699z"/>
<path style="fill:#7f7f7f; stroke:none;" d="M1205 1700L1206 1701L1205 1700z"/>
<path style="fill:#b0b0b0; stroke:none;" d="M2864 1700L2865 1701L2864 1700M750 1701L751 1702L750 1701M1486 1701L1487 1702L1486 1701M2865 1701L2866 1702L2865 1701M2866 1702L2867 1703L2866 1702M3285 1702L3286 1703L3285 1702z"/>
<path style="fill:#7f7f7f; stroke:none;" d="M1034 1703L1035 1704L1034 1703M1206 1703L1207 1704L1206 1703z"/>
<path style="fill:#b0b0b0; stroke:none;" d="M1788 1703L1789 1704L1788 1703M2867 1703L2868 1704L2867 1703z"/>
<path style="fill:#7f7f7f; stroke:none;" d="M2406 1704L2407 1705L2406 1704z"/>
<path style="fill:#b0b0b0; stroke:none;" d="M2868 1704L2869 1705L2868 1704z"/>
<path style="fill:#ffffff; stroke:none;" d="M2227 1705L2228 1706L2227 1705z"/>
<path style="fill:#b0b0b0; stroke:none;" d="M2869 1705L2870 1706L2869 1705z"/>
<path style="fill:#7f7f7f; stroke:none;" d="M1207 1706L1208 1707L1207 1706z"/>
<path style="fill:#b0b0b0; stroke:none;" d="M2870 1706L2871 1707L2870 1706M2871 1707L2872 1708L2871 1707M1490 1708L1491 1709L1490 1708M2872 1708L2873 1709L2872 1708z"/>
<path style="fill:#7f7f7f; stroke:none;" d="M1208 1709L1209 1710L1208 1709z"/>
<path style="fill:#b0b0b0; stroke:none;" d="M2873 1709L2874 1710L2873 1709z"/>
<path style="fill:#ffffff; stroke:none;" d="M1790 1710L1791 1711L1790 1710z"/>
<path style="fill:#b0b0b0; stroke:none;" d="M2874 1710L2875 1711L2874 1710z"/>
<path style="fill:#ffffff; stroke:none;" d="M2404 1711L2405 1712L2404 1711z"/>
<path style="fill:#b0b0b0; stroke:none;" d="M2875 1711L2876 1712L2875 1711z"/>
<path style="fill:#7f7f7f; stroke:none;" d="M1209 1712L1210 1713L1209 1712z"/>
<path style="fill:#ffffff; stroke:none;" d="M2229 1712L2230 1713L2229 1712z"/>
<path style="fill:#b0b0b0; stroke:none;" d="M2876 1712L2877 1713L2876 1712M1037 1713L1038 1714L1037 1713M2877 1713L2878 1714L2877 1713M746 1714L747 1715L746 1714M2878 1714L2879 1715L2878 1714z"/>
<path style="fill:#7f7f7f; stroke:none;" d="M1210 1715L1211 1716L1210 1715z"/>
<path style="fill:#b0b0b0; stroke:none;" d="M2230 1715L2231 1716L2230 1715M2879 1715L2880 1716L2879 1715M2880 1716L2881 1717L2880 1716M745 1717L746 1718L745 1717M2881 1717L2882 1718L2881 1717M3280 1717L3281 1718L3280 1717z"/>
<path style="fill:#7f7f7f; stroke:none;" d="M1211 1718L1212 1719L1211 1718z"/>
<path style="fill:#b0b0b0; stroke:none;" d="M2882 1718L2883 1719L2882 1718z"/>
<path style="fill:#7f7f7f; stroke:none;" d="M1039 1719L1040 1720L1039 1719z"/>
<path style="fill:#b0b0b0; stroke:none;" d="M2883 1719L2884 1720L2883 1719M1497 1720L1498 1721L1497 1720M2884 1720L2885 1721L2884 1720M3279 1720L3280 1721L3279 1720z"/>
<path style="fill:#7f7f7f; stroke:none;" d="M1212 1721L1213 1722L1212 1721z"/>
<path style="fill:#b0b0b0; stroke:none;" d="M2401 1721L2402 1722L2401 1721M2885 1721L2886 1722L2885 1721M2886 1722L2887 1723L2886 1722M1962 1723L1963 1724L1962 1723M2887 1723L2888 1724L2887 1723z"/>
<path style="fill:#7f7f7f; stroke:none;" d="M1213 1724L1214 1725L1213 1724z"/>
<path style="fill:#b0b0b0; stroke:none;" d="M2888 1724L2889 1725L2888 1724M2889 1725L2890 1726L2889 1725M2890 1726L2891 1727L2890 1726z"/>
<path style="fill:#7f7f7f; stroke:none;" d="M1214 1727L1215 1728L1214 1727z"/>
<path style="fill:#b0b0b0; stroke:none;" d="M1501 1727L1502 1728L1501 1727M2891 1727L2892 1728L2891 1727M2892 1728L2893 1729L2892 1728M1042 1729L1043 1730L1042 1729M2893 1729L2894 1730L2893 1729M741 1730L742 1731L741 1730z"/>
<path style="fill:#7f7f7f; stroke:none;" d="M1215 1730L1216 1731L1215 1730z"/>
<path style="fill:#b0b0b0; stroke:none;" d="M2894 1730L2895 1731L2894 1730M2895 1731L2896 1732L2895 1731M1043 1732L1044 1733L1043 1732M2896 1732L2897 1733L2896 1732M3275 1732L3276 1733L3275 1732M740 1733L741 1734L740 1733z"/>
<path style="fill:#7f7f7f; stroke:none;" d="M1216 1733L1217 1734L1216 1733z"/>
<path style="fill:#b0b0b0; stroke:none;" d="M2897 1733L2898 1734L2897 1733M1797 1734L1798 1735L1797 1734M2898 1734L2899 1735L2898 1734z"/>
<path style="fill:#ffffff; stroke:none;" d="M1044 1735L1045 1736L1044 1735z"/>
<path style="fill:#7f7f7f; stroke:none;" d="M2397 1735L2398 1736L2397 1735z"/>
<path style="fill:#b0b0b0; stroke:none;" d="M2899 1735L2900 1736L2899 1735M3274 1735L3275 1736L3274 1735z"/>
<path style="fill:#7f7f7f; stroke:none;" d="M1217 1736L1218 1737L1217 1736z"/>
<path style="fill:#b0b0b0; stroke:none;" d="M2236 1736L2237 1737L2236 1736M2900 1736L2901 1737L2900 1736M1958 1737L1959 1738L1958 1737M2901 1737L2902 1738L2901 1737M2902 1738L2903 1739L2902 1738z"/>
<path style="fill:#7f7f7f; stroke:none;" d="M1218 1739L1219 1740L1218 1739z"/>
<path style="fill:#b0b0b0; stroke:none;" d="M1508 1739L1509 1740L1508 1739M2903 1739L2904 1740L2903 1739M2904 1740L2905 1741L2904 1740z"/>
<path style="fill:#ffffff; stroke:none;" d="M1799 1741L1800 1742L1799 1741z"/>
<path style="fill:#b0b0b0; stroke:none;" d="M2905 1741L2906 1742L2905 1741z"/>
<path style="fill:#7f7f7f; stroke:none;" d="M1219 1742L1220 1743L1219 1742z"/>
<path style="fill:#ffffff; stroke:none;" d="M2395 1742L2396 1743L2395 1742z"/>
<path style="fill:#b0b0b0; stroke:none;" d="M2906 1742L2907 1743L2906 1742M2907 1743L2908 1744L2907 1743M1956 1744L1957 1745L1956 1744M2908 1744L2909 1745L2908 1744M3271 1744L3272 1745L3271 1744M737 1745L738 1746L737 1745M1955 1745L1956 1746L1955 1745M2239 1745L2240 1746L2239 1745z"/>
<path style="fill:#ffffff; stroke:none;" d="M2394 1745L2395 1746L2394 1745M2909 1745L2910 1746L2909 1745z"/>
<path style="fill:#b0b0b0; stroke:none;" d="M3270 1745L3271 1746L3270 1745M492 2350L493 2351L492 2350z"/>
<path style="fill:#a3a3a3; stroke:none;" d="M492 2351C497.439 2374.51 506.187 2398.04 513.67 2421C517.201 2431.84 522.454 2443.66 523.816 2455C528.241 2491.87 524 2531.84 524 2569L524 2801L524 3034C524 3071.79 528.362 3112.51 523.816 3150C522.641 3159.69 517.919 3169.69 515.026 3179C507.322 3203.79 497.8 3228.7 492 3254L903 3254L1013 3254C1023.73 3254 1045.83 3258.19 1055 3252.4C1070.17 3242.82 1083.31 3224.69 1096 3212L1180 3128L1216 3092C1221.35 3086.65 1229.56 3080.82 1232.97 3074C1235.41 3069.12 1234 3061.33 1234 3056L1234 3016L1234 2872L1234 2633L1234 2562C1234 2552.98 1236.53 2539.49 1233.4 2531C1231.12 2524.83 1223.55 2519.55 1219 2515L1186 2482L1098 2394C1084.76 2380.76 1070.93 2361.59 1055 2351.74C1045.9 2346.12 1025.53 2350 1015 2350L914 2350L623 2350L535 2350C521.704 2350 504.754 2347.23 492 2351z"/>
<path style="fill:#7f7f7f; stroke:none;" d="M1053 2350L1054 2351L1053 2350z"/>
<path style="fill:#b0b0b0; stroke:none;" d="M1556 2350L1557 2351L1556 2350z"/>
<path style="fill:#a3a3a3; stroke:none;" d="M1557 2350.74C1548.68 2353.92 1541.19 2364.81 1535 2371L1488 2418L1419 2487C1409.96 2496.04 1394.76 2506.54 1389.03 2518C1386.04 2523.98 1388 2534.43 1388 2541L1388 2595L1388 2788L1388 3002L1388 3062C1388 3069.07 1385.82 3080.58 1389.03 3087C1396.18 3101.3 1415.7 3114.7 1427 3126L1512 3211L1542 3241C1546.02 3245.02 1550.53 3251.38 1556 3253.4C1562.18 3255.68 1571.46 3254 1578 3254L1628 3254L1797 3254L1907 3254C1920.68 3254 1942.18 3258.12 1955 3253.4C1962.87 3250.49 1970.16 3239.84 1976 3234L2024 3186L2093 3117C2102.04 3107.96 2117.24 3097.46 2122.97 3086C2125.96 3080.02 2124 3069.57 2124 3063L2124 3010L2124 2820L2124 2604L2124 2544C2124 2536.69 2126.29 2524.63 2122.97 2518C2115.82 2503.7 2096.3 2490.3 2085 2479L1998 2392L1969 2363C1964.77 2358.77 1960.01 2352.08 1954 2350.43C1946.81 2348.47 1937.43 2350 1930 2350L1879 2350L1715 2350L1605 2350C1591.34 2350 1569.76 2345.87 1557 2350.74z"/>
<path style="fill:#b0b0b0; stroke:none;" d="M1955 2350L1956 2351L1955 2350M2458 2350L2459 2351L2458 2350z"/>
<path style="fill:#a3a3a3; stroke:none;" d="M2908 2989C2893.55 2991.13 2878.85 2998.05 2865 3002.67C2828.67 3014.78 2792.12 3029.86 2755 3039.24C2741.63 3042.62 2724.77 3040 2711 3040C2692.83 3040 2670.74 3043.44 2653 3039.61C2643.48 3037.55 2633.69 3030.59 2625 3026.25C2609.59 3018.54 2591.05 3012.13 2577.1 3002.03C2570.11 2996.97 2566.53 2984.56 2562.75 2977C2556.6 2964.7 2546.3 2950.45 2543.39 2937C2541.38 2927.7 2543 2916.5 2543 2907L2543 2678C2543 2658.47 2557.16 2639.19 2565.75 2622C2569.03 2615.45 2571.82 2606.27 2578.04 2601.97C2592.34 2592.07 2610.44 2585.53 2626 2577.75C2634.69 2573.41 2644.48 2566.45 2654 2564.39C2665.72 2561.86 2680.02 2564 2692 2564C2706.8 2564 2723.4 2561.89 2738 2564.33C2753.73 2566.95 2769.87 2574.62 2785 2579.67C2821.55 2591.85 2857.94 2605.48 2895 2616C2889.61 2592.69 2879.9 2569.7 2872.33 2547C2858.23 2504.7 2844.44 2462.31 2830.33 2420L2813.67 2370C2812.03 2365.09 2810.57 2354.23 2806.3 2351.03C2803.77 2349.13 2798.96 2350 2796 2350L2770 2350L2670 2350L2519 2350L2477 2350C2471.3 2350 2463.23 2348.57 2458 2351.18C2445.41 2357.47 2433.93 2374.07 2424 2384L2351 2457L2298 2510C2292.2 2515.8 2280.37 2523.81 2278.32 2532C2275.26 2544.2 2278 2560.41 2278 2573L2278 2660L2278 2938L2278 3037C2278 3046.86 2274.26 3066.54 2279.6 3075C2289.41 3090.53 2308 3104 2321 3117L2409 3205L2443 3239C2447.55 3243.55 2452.83 3251.12 2459 3253.4C2464.92 3255.58 2473.74 3254 2480 3254L2525 3254L2677 3254L2782 3254L2809 3254C2811.96 3254 2816.77 3254.87 2819.3 3252.97C2823.57 3249.77 2825.03 3238.91 2826.67 3234L2843.67 3183C2865.22 3118.35 2886.92 3053.8 2908 2989z"/>
<path style="fill:#b0b0b0; stroke:none;" d="M3161 2350L3162 2351L3161 2350z"/>
<path style="fill:#a3a3a3; stroke:none;" d="M2964 2989C2967.63 3013.57 2979.87 3039.5 2987.92 3063C3001.58 3102.83 3014.34 3143.03 3027.67 3183C3035.46 3206.39 3045.32 3230.02 3051 3254L3318 3254L3397 3254C3407.12 3254 3422.49 3256.9 3432 3253.4C3437.47 3251.38 3441.98 3245.02 3446 3241L3474 3213L3563 3124L3588 3099C3591.75 3095.25 3597.51 3091.12 3599.4 3086C3603.84 3073.94 3600 3053.86 3600 3041L3600 2939L3600 2863C3600 2854.88 3602.83 2840.03 3598.4 2833C3591.83 2822.59 3579.69 2813.69 3571 2805L3513 2747C3502.32 2736.32 3489.67 2717.93 3476 2711.43C3462.45 2704.98 3443.66 2703.81 3429 2700.58C3396.99 2693.51 3364.85 2686.6 3333 2678.87C3316.4 2674.84 3295.44 2673.8 3280 2666.57C3261.56 2657.92 3249.2 2637.73 3252.21 2618C3253.17 2611.75 3257.45 2605.59 3260.25 2600C3263.71 2593.08 3266.62 2584.15 3271.64 2578.21C3278.25 2570.38 3300 2560.55 3310 2558.39C3324.13 2555.34 3341.54 2558 3356 2558L3449 2558C3463.15 2558 3480.19 2555.41 3494 2558.53C3531.23 2566.94 3566.23 2590.42 3604 2596C3599.32 2575.76 3590.91 2555.73 3584.33 2536C3570.78 2495.35 3556.95 2454.75 3543.75 2414C3538.77 2398.65 3533.77 2383.31 3528.67 2368C3527.13 2363.4 3525.84 2353.86 3521.58 2351.03C3514.28 2346.18 3493.72 2350 3485 2350L3388 2350L3226 2350L3181 2350C3175.05 2350 3166.45 2348.45 3161 2351.18C3149.48 2356.94 3139.08 2371.92 3130 2381L3064 2447L3011 2500C3005.27 2505.73 2993.81 2513.4 2993.06 2522C2988.92 2569.53 2993 2619.27 2993 2667L2993 2711C2993 2716.99 2991.51 2725.33 2993.6 2731C2998.1 2743.18 3016.86 2755.86 3026 2765C3052.28 2791.28 3077.63 2822.96 3107 2845.7C3112.09 2849.64 3119.84 2850.36 3126 2851.6C3137.05 2853.83 3147.96 2856.72 3159 2859C3193.79 2866.21 3228.3 2874.91 3263 2882.58C3276.45 2885.55 3297.34 2886.4 3309 2893.74C3318.42 2899.67 3334.99 2915.03 3339.97 2925C3342.07 2929.2 3341 2935.43 3341 2940C3341 2952.38 3344.09 2969.63 3338.74 2981C3334.13 2990.81 3329.29 3005.93 3321.61 3013.61C3317.15 3018.07 3309.58 3020.46 3304 3023.25C3297.13 3026.68 3289.55 3031.98 3282 3033.61C3261.55 3038.03 3235.95 3034 3215 3034L3138 3034C3125.61 3034 3111.13 3036.06 3099 3033.48C3052.89 3023.7 3009.94 2999.63 2964 2989z"/>
<path style="fill:#7f7f7f; stroke:none;" d="M3522 2350L3523 2351L3522 2350z"/>
<path style="fill:#ffffff; stroke:none;" d="M2807 2351L2808 2352L2807 2351M2808 2354L2809 2355L2808 2354M2809 2357L2810 2358L2809 2357z"/>
<path style="fill:#b0b0b0; stroke:none;" d="M496 2365L497 2366L496 2365M501 2381L502 2382L501 2381M3535 2389L3536 2390L3535 2389M3536 2392L3537 2393L3536 2392M506 2397L507 2398L506 2397M3540 2404L3541 2405L3540 2404M511 2413L512 2414L511 2413M3543 2413L3544 2414L3543 2413M3544 2416L3545 2417L3544 2416M3548 2428L3549 2429L3548 2428M516 2429L517 2430L516 2429M3549 2431L3550 2432L3549 2431M3550 2434L3551 2435L3550 2434M3552 2440L3553 2441L3552 2440M3553 2443L3554 2444L3553 2443M521 2445L522 2446L521 2445M3554 2446L3555 2447L3554 2446M3555 2449L3556 2450L3555 2449M3556 2452L3557 2453L3556 2452z"/>
<path style="fill:#7f7f7f; stroke:none;" d="M3557 2455L3558 2456L3557 2455M3558 2458L3559 2459L3558 2458M3559 2461L3560 2462L3559 2461z"/>
<path style="fill:#ffffff; stroke:none;" d="M3560 2464L3561 2465L3560 2464M3561 2467L3562 2468L3561 2467z"/>
<path style="fill:#b0b0b0; stroke:none;" d="M2846 2469L2847 2470L2846 2469z"/>
<path style="fill:#ffffff; stroke:none;" d="M3562 2470L3563 2471L3562 2470M3563 2473L3564 2474L3563 2473M3564 2476L3565 2477L3564 2476z"/>
<path style="fill:#b0b0b0; stroke:none;" d="M2855 2496L2856 2497L2855 2496M2860 2511L2861 2512L2860 2511M2861 2514L2862 2515L2861 2514M2862 2517L2863 2518L2862 2517M2864 2523L2865 2524L2864 2523M2865 2526L2866 2527L2865 2526M2866 2529L2867 2530L2866 2529M2867 2532L2868 2533L2867 2532M2868 2535L2869 2536L2868 2535M2869 2538L2870 2539L2869 2538z"/>
<path style="fill:#7f7f7f; stroke:none;" d="M2870 2541L2871 2542L2870 2541M2871 2544L2872 2545L2871 2544M2872 2547L2873 2548L2872 2547z"/>
<path style="fill:#ffffff; stroke:none;" d="M2873 2550L2874 2551L2873 2550z"/>
<path style="fill:#010101; stroke:none;" d="M796 2552.03C780.638 2559.71 783 2574.72 783 2589L783 2686L783 2926L783 2993C783 3000.8 780.494 3013.93 784.028 3021C797.065 3047.07 829.039 3040 853 3040C861.889 3040 873.646 3042 882 3038.65C896.024 3033.01 909.48 3025.01 923 3018.25C929.285 3015.1 938.356 3012.37 943.363 3007.36C951.931 2998.79 956.835 2981.82 962.247 2971C966.288 2962.92 972.693 2953.86 974.61 2945C978.836 2925.45 975 2901.02 975 2881L975 2763L975 2681C975 2669.95 977.803 2654.34 973.648 2644C968.288 2630.66 960.677 2617.86 954.247 2605C951.013 2598.53 948.265 2589.76 943.363 2584.39C937.563 2578.04 925.627 2574.57 918 2570.75C905.699 2564.6 891.454 2554.3 878 2551.39C865.984 2548.79 851.29 2551 839 2551C827.537 2551 806.28 2546.89 796 2552.03z"/>
<path style="fill:#b0b0b0; stroke:none;" d="M879 2551L880 2552L879 2551M1723 2551L1724 2552L1723 2551z"/>
<path style="fill:#010101; stroke:none;" d="M1724 2551.64L1689 2568.75L1672.64 2577.64L1663.75 2594L1647.64 2627L1647 2664L1647 2741L1647 2894L1647 2941L1647.64 2964L1664.75 2999L1673.39 3014.36L1694 3025.25L1724 3039.61L1760 3040L1789 3039.36L1824 3022.25L1839.36 3013.61L1849.25 2995L1864.36 2964L1865 2928L1865 2851L1865 2697L1865 2650L1864.36 2627L1848.25 2594L1839.36 2577.64L1815 2564.75L1787 2551.39L1750 2551L1724 2551.64z"/>
<path style="fill:#b0b0b0; stroke:none;" d="M881 2552L882 2553L881 2552M1721 2552L1722 2553L1721 2552M883 2553L884 2554L883 2553M1719 2553L1720 2554L1719 2553z"/>
<path style="fill:#ffffff; stroke:none;" d="M2874 2553L2875 2554L2874 2553z"/>
<path style="fill:#b0b0b0; stroke:none;" d="M885 2554L886 2555L885 2554M1717 2554L1718 2555L1717 2554M887 2555L888 2556L887 2555M1715 2555L1716 2556L1715 2555M889 2556L890 2557L889 2556M1713 2556L1714 2557L1713 2556z"/>
<path style="fill:#ffffff; stroke:none;" d="M2875 2556L2876 2557L2875 2556z"/>
<path style="fill:#b0b0b0; stroke:none;" d="M891 2557L892 2558L891 2557M1711 2557L1712 2558L1711 2557M893 2558L894 2559L893 2558M1709 2558L1710 2559L1709 2558z"/>
<path style="fill:#7f7f7f; stroke:none;" d="M3494 2558L3495 2559L3494 2558z"/>
<path style="fill:#b0b0b0; stroke:none;" d="M1707 2559L1708 2560L1707 2559z"/>
<path style="fill:#ffffff; stroke:none;" d="M2876 2559L2877 2560L2876 2559z"/>
<path style="fill:#b0b0b0; stroke:none;" d="M3497 2559L3498 2560L3497 2559M1705 2560L1706 2561L1705 2560M1703 2561L1704 2562L1703 2561M1701 2562L1702 2563L1701 2562z"/>
<path style="fill:#ffffff; stroke:none;" d="M2877 2562L2878 2563L2877 2562z"/>
<path style="fill:#b0b0b0; stroke:none;" d="M1699 2563L1700 2564L1699 2563M1697 2564L1698 2565L1697 2564M1695 2565L1696 2566L1695 2565z"/>
<path style="fill:#ffffff; stroke:none;" d="M3514 2565L3515 2566L3514 2565z"/>
<path style="fill:#b0b0b0; stroke:none;" d="M1693 2566L1694 2567L1693 2566M3517 2566L3518 2567L3517 2566M1691 2567L1692 2568L1691 2567M1689 2568L1690 2569L1689 2568M3523 2568L3524 2569L3523 2568M1687 2569L1688 2570L1687 2569M1685 2570L1686 2571L1685 2570M1683 2571L1684 2572L1683 2571M1681 2572L1682 2573L1681 2572M1679 2573L1680 2574L1679 2573z"/>
<path style="fill:#7f7f7f; stroke:none;" d="M3537 2573L3538 2574L3537 2573z"/>
<path style="fill:#b0b0b0; stroke:none;" d="M1677 2574L1678 2575L1677 2574M3540 2574L3541 2575L3540 2574M1675 2575L1676 2576L1675 2575M3543 2575L3544 2576L3543 2575M1673 2576L1674 2577L1673 2576M3597 2576L3598 2577L3597 2576M3598 2579L3599 2580L3598 2579z"/>
<path style="fill:#ffffff; stroke:none;" d="M3557 2580L3558 2581L3557 2580z"/>
<path style="fill:#b0b0b0; stroke:none;" d="M3560 2581L3561 2582L3560 2581M3563 2582L3564 2583L3563 2582M3566 2583L3567 2584L3566 2583M3580 2588L3581 2589L3580 2588M3583 2589L3584 2590L3583 2589M3586 2590L3587 2591L3586 2590z"/>
<path style="fill:#ffffff; stroke:none;" d="M3600 2595L3601 2596L3600 2595z"/>
<path style="fill:#b0b0b0; stroke:none;" d="M2893 2615L2894 2616L2893 2615M975 2648L975 2944L976 2944L976 2735L976 2675L975 2648M3282 2667L3283 2668L3282 2667z"/>
<path style="fill:#7f7f7f; stroke:none;" d="M3291 2669L3292 2670L3291 2669z"/>
<path style="fill:#b0b0b0; stroke:none;" d="M3304 2672L3305 2673L3304 2672z"/>
<path style="fill:#7f7f7f; stroke:none;" d="M3322 2676L3323 2677L3322 2676z"/>
<path style="fill:#b0b0b0; stroke:none;" d="M3335 2679L3336 2680L3335 2679z"/>
<path style="fill:#7f7f7f; stroke:none;" d="M3353 2683L3354 2684L3353 2683z"/>
<path style="fill:#b0b0b0; stroke:none;" d="M3366 2686L3367 2687L3366 2686z"/>
<path style="fill:#7f7f7f; stroke:none;" d="M3384 2690L3385 2691L3384 2690z"/>
<path style="fill:#b0b0b0; stroke:none;" d="M3397 2693L3398 2694L3397 2693z"/>
<path style="fill:#7f7f7f; stroke:none;" d="M3415 2697L3416 2698L3415 2697z"/>
<path style="fill:#b0b0b0; stroke:none;" d="M3428 2700L3429 2701L3428 2700z"/>
<path style="fill:#7f7f7f; stroke:none;" d="M3446 2704L3447 2705L3446 2704z"/>
<path style="fill:#b0b0b0; stroke:none;" d="M3459 2707L3460 2708L3459 2707z"/>
<path style="fill:#ffffff; stroke:none;" d="M3477 2711L3478 2712L3477 2711z"/>
<path style="fill:#b0b0b0; stroke:none;" d="M3478 2712L3479 2713L3478 2712M3479 2713L3480 2714L3479 2713M3480 2714L3481 2715L3480 2714M3481 2715L3482 2716L3481 2715M3482 2716L3483 2717L3482 2716M3483 2717L3484 2718L3483 2717M3484 2718L3485 2719L3484 2718M3485 2719L3486 2720L3485 2719M3486 2720L3487 2721L3486 2720M3487 2721L3488 2722L3487 2721M3488 2722L3489 2723L3488 2722M3489 2723L3490 2724L3489 2723M3490 2724L3491 2725L3490 2724M3491 2725L3492 2726L3491 2725M3492 2726L3493 2727L3492 2726M3493 2727L3494 2728L3493 2727M3494 2728L3495 2729L3494 2728M3495 2729L3496 2730L3495 2729M3496 2730L3497 2731L3496 2730M3497 2731L3498 2732L3497 2731M3498 2732L3499 2733L3498 2732M3499 2733L3500 2734L3499 2733M3500 2734L3501 2735L3500 2734M3501 2735L3502 2736L3501 2735M3502 2736L3503 2737L3502 2736M3503 2737L3504 2738L3503 2737M3504 2738L3505 2739L3504 2738M3505 2739L3506 2740L3505 2739M3506 2740L3507 2741L3506 2740M3507 2741L3508 2742L3507 2741M3508 2742L3509 2743L3508 2742M3509 2743L3510 2744L3509 2743M3510 2744L3511 2745L3510 2744M3511 2745L3512 2746L3511 2745M3512 2746L3513 2747L3512 2746M3513 2747L3514 2748L3513 2747M3514 2748L3515 2749L3514 2748M3515 2749L3516 2750L3515 2749M3516 2750L3517 2751L3516 2750M3517 2751L3518 2752L3517 2751M3518 2752L3519 2753L3518 2752M3519 2753L3520 2754L3519 2753M3520 2754L3521 2755L3520 2754M3521 2755L3522 2756L3521 2755M3522 2756L3523 2757L3522 2756M3523 2757L3524 2758L3523 2757M3524 2758L3525 2759L3524 2758M3525 2759L3526 2760L3525 2759M3526 2760L3527 2761L3526 2760M3527 2761L3528 2762L3527 2761M3528 2762L3529 2763L3528 2762M3529 2763L3530 2764L3529 2763M3530 2764L3531 2765L3530 2764M3531 2765L3532 2766L3531 2765M3532 2766L3533 2767L3532 2766M3533 2767L3534 2768L3533 2767M3534 2768L3535 2769L3534 2768M3535 2769L3536 2770L3535 2769M3536 2770L3537 2771L3536 2770M3537 2771L3538 2772L3537 2771M3538 2772L3539 2773L3538 2772M3539 2773L3540 2774L3539 2773M3540 2774L3541 2775L3540 2774M3541 2775L3542 2776L3541 2775M3542 2776L3543 2777L3542 2776M3543 2777L3544 2778L3543 2777M3544 2778L3545 2779L3544 2778M3545 2779L3546 2780L3545 2779M3546 2780L3547 2781L3546 2780M3547 2781L3548 2782L3547 2781M3548 2782L3549 2783L3548 2782M3549 2783L3550 2784L3549 2783M3550 2784L3551 2785L3550 2784M3551 2785L3552 2786L3551 2785M3552 2786L3553 2787L3552 2786M3553 2787L3554 2788L3553 2787M3554 2788L3555 2789L3554 2788M3555 2789L3556 2790L3555 2789M3556 2790L3557 2791L3556 2790M3557 2791L3558 2792L3557 2791M3558 2792L3559 2793L3558 2792M3559 2793L3560 2794L3559 2793M3560 2794L3561 2795L3560 2794M3561 2795L3562 2796L3561 2795M3562 2796L3563 2797L3562 2796M3563 2797L3564 2798L3563 2797M3564 2798L3565 2799L3564 2798M3565 2799L3566 2800L3565 2799M3566 2800L3567 2801L3566 2800M3567 2801L3568 2802L3567 2801M3568 2802L3569 2803L3568 2802M3569 2803L3570 2804L3569 2803M3570 2804L3571 2805L3570 2804M3571 2805L3572 2806L3571 2805M3572 2806L3573 2807L3572 2806M3573 2807L3574 2808L3573 2807M3574 2808L3575 2809L3574 2808M3575 2809L3576 2810L3575 2809M3576 2810L3577 2811L3576 2810M3577 2811L3578 2812L3577 2811M3578 2812L3579 2813L3578 2812M3579 2813L3580 2814L3579 2813M3580 2814L3581 2815L3580 2814M3581 2815L3582 2816L3581 2815M3582 2816L3583 2817L3582 2816M3583 2817L3584 2818L3583 2817M3584 2818L3585 2819L3584 2818M3585 2819L3586 2820L3585 2819M3586 2820L3587 2821L3586 2820M3587 2821L3588 2822L3587 2821M3588 2822L3589 2823L3588 2822M3589 2823L3590 2824L3589 2823M3590 2824L3591 2825L3590 2824M3591 2825L3592 2826L3591 2825M3592 2826L3593 2827L3592 2826M3593 2827L3594 2828L3593 2827M3594 2828L3595 2829L3594 2828M3595 2829L3596 2830L3595 2829M3596 2830L3597 2831L3596 2830M3597 2831L3598 2832L3597 2831M3598 2832L3599 2833L3598 2832M3599 2833L3600 2834L3599 2833M3112 2848L3113 2849L3112 2848M3130 2852L3131 2853L3130 2852z"/>
<path style="fill:#ffffff; stroke:none;" d="M3134 2853L3135 2854L3134 2853z"/>
<path style="fill:#b0b0b0; stroke:none;" d="M3143 2855L3144 2856L3143 2855M3161 2859L3162 2860L3161 2859z"/>
<path style="fill:#ffffff; stroke:none;" d="M3165 2860L3166 2861L3165 2860z"/>
<path style="fill:#b0b0b0; stroke:none;" d="M3174 2862L3175 2863L3174 2862M3192 2866L3193 2867L3192 2866z"/>
<path style="fill:#ffffff; stroke:none;" d="M3196 2867L3197 2868L3196 2867z"/>
<path style="fill:#b0b0b0; stroke:none;" d="M3205 2869L3206 2870L3205 2869z"/>
<path style="fill:#ffffff; stroke:none;" d="M3227 2874L3228 2875L3227 2874z"/>
<path style="fill:#b0b0b0; stroke:none;" d="M3236 2876L3237 2877L3236 2876M3245 2878L3246 2879L3245 2878z"/>
<path style="fill:#ffffff; stroke:none;" d="M3258 2881L3259 2882L3258 2881z"/>
<path style="fill:#b0b0b0; stroke:none;" d="M3267 2883L3268 2884L3267 2883M3276 2885L3277 2886L3276 2885z"/>
<path style="fill:#ffffff; stroke:none;" d="M3289 2888L3290 2889L3289 2888z"/>
<path style="fill:#b0b0b0; stroke:none;" d="M3298 2890L3299 2891L3298 2890M3307 2892L3308 2893L3307 2892M2543 2938L2544 2939L2543 2938M2544 2940L2545 2941L2544 2940M2545 2942L2546 2943L2545 2942M2546 2944L2547 2945L2546 2944M2547 2946L2548 2947L2547 2946M2548 2948L2549 2949L2548 2948M2549 2950L2550 2951L2549 2950M2550 2952L2551 2953L2550 2952M2551 2954L2552 2955L2551 2954M2552 2956L2553 2957L2552 2956M2553 2958L2554 2959L2553 2958M2554 2960L2555 2961L2554 2960M2555 2962L2556 2963L2555 2962M2556 2964L2557 2965L2556 2964M2557 2966L2558 2967L2557 2966M2558 2968L2559 2969L2558 2968M2559 2970L2560 2971L2559 2970M2560 2972L2561 2973L2560 2972M2561 2974L2562 2975L2561 2974M1858 2976L1859 2977L1858 2976M2562 2976L2563 2977L2562 2976z"/>
<path style="fill:#7f7f7f; stroke:none;" d="M3340 2977L3341 2978L3340 2977z"/>
<path style="fill:#b0b0b0; stroke:none;" d="M1857 2978L1858 2979L1857 2978M2563 2978L2564 2979L2563 2978z"/>
<path style="fill:#7f7f7f; stroke:none;" d="M3339 2979L3340 2980L3339 2979z"/>
<path style="fill:#b0b0b0; stroke:none;" d="M1856 2980L1857 2981L1856 2980M2564 2980L2565 2981L2564 2980z"/>
<path style="fill:#7f7f7f; stroke:none;" d="M3338 2981L3339 2982L3338 2981z"/>
<path style="fill:#b0b0b0; stroke:none;" d="M1855 2982L1856 2983L1855 2982M2565 2982L2566 2983L2565 2982z"/>
<path style="fill:#7f7f7f; stroke:none;" d="M3337 2983L3338 2984L3337 2983z"/>
<path style="fill:#b0b0b0; stroke:none;" d="M1854 2984L1855 2985L1854 2984M2566 2984L2567 2985L2566 2984z"/>
<path style="fill:#7f7f7f; stroke:none;" d="M3336 2985L3337 2986L3336 2985z"/>
<path style="fill:#b0b0b0; stroke:none;" d="M1853 2986L1854 2987L1853 2986M2567 2986L2568 2987L2567 2986z"/>
<path style="fill:#7f7f7f; stroke:none;" d="M3335 2987L3336 2988L3335 2987z"/>
<path style="fill:#b0b0b0; stroke:none;" d="M1852 2988L1853 2989L1852 2988M2568 2988L2569 2989L2568 2988z"/>
<path style="fill:#7f7f7f; stroke:none;" d="M2904 2989L2905 2990L2904 2989z"/>
<path style="fill:#b0b0b0; stroke:none;" d="M2966 2989L2967 2990L2966 2989z"/>
<path style="fill:#7f7f7f; stroke:none;" d="M3334 2989L3335 2990L3334 2989z"/>
<path style="fill:#b0b0b0; stroke:none;" d="M1851 2990L1852 2991L1851 2990M2569 2990L2570 2991L2569 2990z"/>
<path style="fill:#7f7f7f; stroke:none;" d="M2901 2990L2902 2991L2901 2990z"/>
<path style="fill:#b0b0b0; stroke:none;" d="M2969 2990L2970 2991L2969 2990z"/>
<path style="fill:#7f7f7f; stroke:none;" d="M2898 2991L2899 2992L2898 2991z"/>
<path style="fill:#b0b0b0; stroke:none;" d="M2972 2991L2973 2992L2972 2991z"/>
<path style="fill:#7f7f7f; stroke:none;" d="M3333 2991L3334 2992L3333 2991z"/>
<path style="fill:#b0b0b0; stroke:none;" d="M1850 2992L1851 2993L1850 2992M2570 2992L2571 2993L2570 2992z"/>
<path style="fill:#7f7f7f; stroke:none;" d="M2895 2992L2896 2993L2895 2992z"/>
<path style="fill:#b0b0b0; stroke:none;" d="M2975 2992L2976 2993L2975 2992z"/>
<path style="fill:#7f7f7f; stroke:none;" d="M2892 2993L2893 2994L2892 2993z"/>
<path style="fill:#b0b0b0; stroke:none;" d="M2978 2993L2979 2994L2978 2993z"/>
<path style="fill:#7f7f7f; stroke:none;" d="M3332 2993L3333 2994L3332 2993z"/>
<path style="fill:#b0b0b0; stroke:none;" d="M1849 2994L1850 2995L1849 2994M2571 2994L2572 2995L2571 2994z"/>
<path style="fill:#7f7f7f; stroke:none;" d="M2889 2994L2890 2995L2889 2994z"/>
<path style="fill:#b0b0b0; stroke:none;" d="M2981 2994L2982 2995L2981 2994z"/>
<path style="fill:#7f7f7f; stroke:none;" d="M2886 2995L2887 2996L2886 2995z"/>
<path style="fill:#b0b0b0; stroke:none;" d="M2984 2995L2985 2996L2984 2995M3331 2995L3332 2996L3331 2995M1848 2996L1849 2997L1848 2996M2572 2996L2573 2997L2572 2996z"/>
<path style="fill:#7f7f7f; stroke:none;" d="M2883 2996L2884 2997L2883 2996z"/>
<path style="fill:#b0b0b0; stroke:none;" d="M2987 2996L2988 2997L2987 2996z"/>
<path style="fill:#7f7f7f; stroke:none;" d="M2880 2997L2881 2998L2880 2997z"/>
<path style="fill:#b0b0b0; stroke:none;" d="M2990 2997L2991 2998L2990 2997M3330 2997L3331 2998L3330 2997M1847 2998L1848 2999L1847 2998M2573 2998L2574 2999L2573 2998z"/>
<path style="fill:#7f7f7f; stroke:none;" d="M2877 2998L2878 2999L2877 2998z"/>
<path style="fill:#b0b0b0; stroke:none;" d="M2993 2998L2994 2999L2993 2998z"/>
<path style="fill:#7f7f7f; stroke:none;" d="M2874 2999L2875 3000L2874 2999z"/>
<path style="fill:#b0b0b0; stroke:none;" d="M2996 2999L2997 3000L2996 2999M3329 2999L3330 3000L3329 2999M1846 3000L1847 3001L1846 3000M2574 3000L2575 3001L2574 3000z"/>
<path style="fill:#7f7f7f; stroke:none;" d="M2871 3000L2872 3001L2871 3000z"/>
<path style="fill:#b0b0b0; stroke:none;" d="M2999 3000L3000 3001L2999 3000z"/>
<path style="fill:#7f7f7f; stroke:none;" d="M2868 3001L2869 3002L2868 3001z"/>
<path style="fill:#ffffff; stroke:none;" d="M2967 3001L2968 3002L2967 3001z"/>
<path style="fill:#b0b0b0; stroke:none;" d="M3002 3001L3003 3002L3002 3001M3328 3001L3329 3002L3328 3001z"/>
<path style="fill:#7f7f7f; stroke:none;" d="M2865 3002L2866 3003L2865 3002z"/>
<path style="fill:#b0b0b0; stroke:none;" d="M3005 3002L3006 3003L3005 3002z"/>
<path style="fill:#7f7f7f; stroke:none;" d="M2862 3003L2863 3004L2862 3003z"/>
<path style="fill:#b0b0b0; stroke:none;" d="M3008 3003L3009 3004L3008 3003M3327 3003L3328 3004L3327 3003z"/>
<path style="fill:#7f7f7f; stroke:none;" d="M2859 3004L2860 3005L2859 3004z"/>
<path style="fill:#ffffff; stroke:none;" d="M2968 3004L2969 3005L2968 3004z"/>
<path style="fill:#b0b0b0; stroke:none;" d="M3011 3004L3012 3005L3011 3004z"/>
<path style="fill:#7f7f7f; stroke:none;" d="M2856 3005L2857 3006L2856 3005z"/>
<path style="fill:#b0b0b0; stroke:none;" d="M3014 3005L3015 3006L3014 3005M3326 3005L3327 3006L3326 3005z"/>
<path style="fill:#7f7f7f; stroke:none;" d="M2853 3006L2854 3007L2853 3006z"/>
<path style="fill:#b0b0b0; stroke:none;" d="M3017 3006L3018 3007L3017 3006z"/>
<path style="fill:#7f7f7f; stroke:none;" d="M2850 3007L2851 3008L2850 3007z"/>
<path style="fill:#ffffff; stroke:none;" d="M2969 3007L2970 3008L2969 3007z"/>
<path style="fill:#b0b0b0; stroke:none;" d="M3020 3007L3021 3008L3020 3007M3325 3007L3326 3008L3325 3007M942 3008L943 3009L942 3008z"/>
<path style="fill:#7f7f7f; stroke:none;" d="M2847 3008L2848 3009L2847 3008z"/>
<path style="fill:#b0b0b0; stroke:none;" d="M3023 3008L3024 3009L3023 3008M940 3009L941 3010L940 3009z"/>
<path style="fill:#7f7f7f; stroke:none;" d="M2844 3009L2845 3010L2844 3009z"/>
<path style="fill:#b0b0b0; stroke:none;" d="M3026 3009L3027 3010L3026 3009M3324 3009L3325 3010L3324 3009M938 3010L939 3011L938 3010z"/>
<path style="fill:#7f7f7f; stroke:none;" d="M2841 3010L2842 3011L2841 3010z"/>
<path style="fill:#ffffff; stroke:none;" d="M2970 3010L2971 3011L2970 3010z"/>
<path style="fill:#b0b0b0; stroke:none;" d="M3029 3010L3030 3011L3029 3010M936 3011L937 3012L936 3011z"/>
<path style="fill:#7f7f7f; stroke:none;" d="M2838 3011L2839 3012L2838 3011z"/>
<path style="fill:#b0b0b0; stroke:none;" d="M3032 3011L3033 3012L3032 3011M3323 3011L3324 3012L3323 3011M934 3012L935 3013L934 3012z"/>
<path style="fill:#7f7f7f; stroke:none;" d="M2835 3012L2836 3013L2835 3012z"/>
<path style="fill:#b0b0b0; stroke:none;" d="M3035 3012L3036 3013L3035 3012M932 3013L933 3014L932 3013z"/>
<path style="fill:#7f7f7f; stroke:none;" d="M2832 3013L2833 3014L2832 3013M2971 3013L2972 3014L2971 3013z"/>
<path style="fill:#b0b0b0; stroke:none;" d="M3038 3013L3039 3014L3038 3013M3322 3013L3323 3014L3322 3013M930 3014L931 3015L930 3014M2829 3014L2830 3015L2829 3014M3041 3014L3042 3015L3041 3014M928 3015L929 3016L928 3015M1674 3015L1675 3016L1674 3015M2826 3015L2827 3016L2826 3015M3044 3015L3045 3016L3044 3015M926 3016L927 3017L926 3016M1676 3016L1677 3017L1676 3016M2823 3016L2824 3017L2823 3016z"/>
<path style="fill:#7f7f7f; stroke:none;" d="M2972 3016L2973 3017L2972 3016z"/>
<path style="fill:#b0b0b0; stroke:none;" d="M3047 3016L3048 3017L3047 3016M924 3017L925 3018L924 3017M1678 3017L1679 3018L1678 3017M2820 3017L2821 3018L2820 3017M3050 3017L3051 3018L3050 3017M922 3018L923 3019L922 3018M1680 3018L1681 3019L1680 3018M2817 3018L2818 3019L2817 3018M3053 3018L3054 3019L3053 3018M920 3019L921 3020L920 3019M1682 3019L1683 3020L1682 3019M2814 3019L2815 3020L2814 3019z"/>
<path style="fill:#7f7f7f; stroke:none;" d="M2973 3019L2974 3020L2973 3019z"/>
<path style="fill:#b0b0b0; stroke:none;" d="M3056 3019L3057 3020L3056 3019M918 3020L919 3021L918 3020M1684 3020L1685 3021L1684 3020M2811 3020L2812 3021L2811 3020M3059 3020L3060 3021L3059 3020M916 3021L917 3022L916 3021M1686 3021L1687 3022L1686 3021M2808 3021L2809 3022L2808 3021M3062 3021L3063 3022L3062 3021M914 3022L915 3023L914 3022M1688 3022L1689 3023L1688 3022M2805 3022L2806 3023L2805 3022M2974 3022L2975 3023L2974 3022M3065 3022L3066 3023L3065 3022M912 3023L913 3024L912 3023M1690 3023L1691 3024L1690 3023M2802 3023L2803 3024L2802 3023z"/>
<path style="fill:#ffffff; stroke:none;" d="M2896 3023L2897 3024L2896 3023z"/>
<path style="fill:#b0b0b0; stroke:none;" d="M3068 3023L3069 3024L3068 3023M910 3024L911 3025L910 3024M1692 3024L1693 3025L1692 3024M2799 3024L2800 3025L2799 3024M3071 3024L3072 3025L3071 3024M908 3025L909 3026L908 3025M1694 3025L1695 3026L1694 3025M2796 3025L2797 3026L2796 3025M2975 3025L2976 3026L2975 3025M3074 3025L3075 3026L3074 3025M906 3026L907 3027L906 3026M1696 3026L1697 3027L1696 3026M2793 3026L2794 3027L2793 3026z"/>
<path style="fill:#ffffff; stroke:none;" d="M2895 3026L2896 3027L2895 3026z"/>
<path style="fill:#b0b0b0; stroke:none;" d="M3077 3026L3078 3027L3077 3026M904 3027L905 3028L904 3027M1698 3027L1699 3028L1698 3027M2790 3027L2791 3028L2790 3027M3080 3027L3081 3028L3080 3027M902 3028L903 3029L902 3028M1700 3028L1701 3029L1700 3028M2787 3028L2788 3029L2787 3028M2976 3028L2977 3029L2976 3028M3083 3028L3084 3029L3083 3028M900 3029L901 3030L900 3029M1702 3029L1703 3030L1702 3029M2784 3029L2785 3030L2784 3029z"/>
<path style="fill:#ffffff; stroke:none;" d="M2894 3029L2895 3030L2894 3029z"/>
<path style="fill:#b0b0b0; stroke:none;" d="M3086 3029L3087 3030L3086 3029M898 3030L899 3031L898 3030M1704 3030L1705 3031L1704 3030M2781 3030L2782 3031L2781 3030M3089 3030L3090 3031L3089 3030M896 3031L897 3032L896 3031M1706 3031L1707 3032L1706 3031M2778 3031L2779 3032L2778 3031M2977 3031L2978 3032L2977 3031M3092 3031L3093 3032L3092 3031M894 3032L895 3033L894 3032M1708 3032L1709 3033L1708 3032M2775 3032L2776 3033L2775 3032z"/>
<path style="fill:#ffffff; stroke:none;" d="M2893 3032L2894 3033L2893 3032z"/>
<path style="fill:#b0b0b0; stroke:none;" d="M3095 3032L3096 3033L3095 3032M892 3033L893 3034L892 3033M1710 3033L1711 3034L1710 3033M2772 3033L2773 3034L2772 3033M3098 3033L3099 3034L3098 3033M890 3034L891 3035L890 3034M1712 3034L1713 3035L1712 3034M2769 3034L2770 3035L2769 3034M2978 3034L2979 3035L2978 3034M888 3035L889 3036L888 3035M1714 3035L1715 3036L1714 3035M2766 3035L2767 3036L2766 3035z"/>
<path style="fill:#7f7f7f; stroke:none;" d="M2892 3035L2893 3036L2892 3035z"/>
<path style="fill:#b0b0b0; stroke:none;" d="M886 3036L887 3037L886 3036M1716 3036L1717 3037L1716 3036M2763 3036L2764 3037L2763 3036M884 3037L885 3038L884 3037M1718 3037L1719 3038L1718 3037M2760 3037L2761 3038L2760 3037M882 3038L883 3039L882 3038M1720 3038L1721 3039L1720 3038M2757 3038L2758 3039L2757 3038z"/>
<path style="fill:#7f7f7f; stroke:none;" d="M2891 3038L2892 3039L2891 3038z"/>
<path style="fill:#b0b0b0; stroke:none;" d="M880 3039L881 3040L880 3039M1722 3039L1723 3040L1722 3039M2754 3039L2755 3040L2754 3039z"/>
<path style="fill:#7f7f7f; stroke:none;" d="M2890 3041L2891 3042L2890 3041z"/>
<path style="fill:#b0b0b0; stroke:none;" d="M2981 3043L2982 3044L2981 3043M2889 3044L2890 3045L2889 3044M2982 3046L2983 3047L2982 3046M2888 3047L2889 3048L2888 3047M2887 3050L2888 3051L2887 3050M2886 3053L2887 3054L2886 3053M2885 3056L2886 3057L2885 3056M2884 3059L2885 3060L2884 3059M2987 3061L2988 3062L2987 3061M2988 3064L2989 3065L2988 3064M2882 3065L2883 3066L2882 3065M2881 3068L2882 3069L2881 3068M2992 3076L2993 3077L2992 3076M2993 3079L2994 3080L2993 3079M2876 3083L2877 3084L2876 3083M2123 3086L2124 3087L2123 3086M2875 3086L2876 3087L2875 3086M2122 3087L2123 3088L2122 3087M2121 3088L2122 3089L2121 3088M2996 3088L2997 3089L2996 3088M2120 3089L2121 3090L2120 3089M2119 3090L2120 3091L2119 3090M2118 3091L2119 3092L2118 3091M2997 3091L2998 3092L2997 3091M2117 3092L2118 3093L2117 3092M2116 3093L2117 3094L2116 3093M2115 3094L2116 3095L2115 3094M2114 3095L2115 3096L2114 3095M2113 3096L2114 3097L2113 3096M2112 3097L2113 3098L2112 3097M2111 3098L2112 3099L2111 3098M2871 3098L2872 3099L2871 3098M2110 3099L2111 3100L2110 3099M2109 3100L2110 3101L2109 3100M2108 3101L2109 3102L2108 3101M2107 3102L2108 3103L2107 3102M2106 3103L2107 3104L2106 3103M2105 3104L2106 3105L2105 3104M2104 3105L2105 3106L2104 3105M2103 3106L2104 3107L2103 3106M2102 3107L2103 3108L2102 3107M2101 3108L2102 3109L2101 3108M2100 3109L2101 3110L2100 3109M2099 3110L2100 3111L2099 3110M2867 3110L2868 3111L2867 3110M2098 3111L2099 3112L2098 3111M2097 3112L2098 3113L2097 3112M2096 3113L2097 3114L2096 3113M2095 3114L2096 3115L2095 3114M2094 3115L2095 3116L2094 3115M2093 3116L2094 3117L2093 3116M2092 3117L2093 3118L2092 3117M2091 3118L2092 3119L2091 3118M2090 3119L2091 3120L2090 3119M2089 3120L2090 3121L2089 3120M2088 3121L2089 3122L2088 3121M2087 3122L2088 3123L2087 3122M2086 3123L2087 3124L2086 3123M2085 3124L2086 3125L2085 3124M2084 3125L2085 3126L2084 3125M2083 3126L2084 3127L2083 3126M2082 3127L2083 3128L2082 3127M2081 3128L2082 3129L2081 3128M2080 3129L2081 3130L2080 3129M2079 3130L2080 3131L2079 3130M2078 3131L2079 3132L2078 3131M2077 3132L2078 3133L2077 3132M2076 3133L2077 3134L2076 3133M2075 3134L2076 3135L2075 3134M2074 3135L2075 3136L2074 3135M2073 3136L2074 3137L2073 3136M2072 3137L2073 3138L2072 3137M2071 3138L2072 3139L2071 3138M2070 3139L2071 3140L2070 3139M2069 3140L2070 3141L2069 3140M2068 3141L2069 3142L2068 3141M2067 3142L2068 3143L2067 3142M2066 3143L2067 3144L2066 3143M2065 3144L2066 3145L2065 3144M2064 3145L2065 3146L2064 3145M2063 3146L2064 3147L2063 3146M2062 3147L2063 3148L2062 3147M2061 3148L2062 3149L2061 3148M2060 3149L2061 3150L2060 3149M2059 3150L2060 3151L2059 3150M2058 3151L2059 3152L2058 3151M523 3152L524 3153L523 3152M2057 3152L2058 3153L2057 3152M2056 3153L2057 3154L2056 3153M2055 3154L2056 3155L2055 3154M2054 3155L2055 3156L2054 3155M2053 3156L2054 3157L2053 3156M2052 3157L2053 3158L2052 3157M2051 3158L2052 3159L2051 3158M2050 3159L2051 3160L2050 3159M2049 3160L2050 3161L2049 3160M2048 3161L2049 3162L2048 3161M2047 3162L2048 3163L2047 3162M2046 3163L2047 3164L2046 3163M2045 3164L2046 3165L2045 3164M2044 3165L2045 3166L2044 3165M2043 3166L2044 3167L2043 3166M2042 3167L2043 3168L2042 3167M518 3168L519 3169L518 3168M2041 3168L2042 3169L2041 3168M2040 3169L2041 3170L2040 3169M2039 3170L2040 3171L2039 3170M2038 3171L2039 3172L2038 3171M2037 3172L2038 3173L2037 3172M2036 3173L2037 3174L2036 3173M2035 3174L2036 3175L2035 3174M2034 3175L2035 3176L2034 3175M2033 3176L2034 3177L2033 3176M2032 3177L2033 3178L2032 3177M2031 3178L2032 3179L2031 3178M2030 3179L2031 3180L2030 3179M2029 3180L2030 3181L2029 3180M2028 3181L2029 3182L2028 3181M2027 3182L2028 3183L2027 3182M2026 3183L2027 3184L2026 3183M513 3184L514 3185L513 3184M2025 3184L2026 3185L2025 3184M2024 3185L2025 3186L2024 3185M2023 3186L2024 3187L2023 3186M2022 3187L2023 3188L2022 3187M2021 3188L2022 3189L2021 3188M2020 3189L2021 3190L2020 3189M2019 3190L2020 3191L2019 3190M2018 3191L2019 3192L2018 3191M2017 3192L2018 3193L2017 3192M2016 3193L2017 3194L2016 3193M2015 3194L2016 3195L2015 3194M2014 3195L2015 3196L2014 3195M2013 3196L2014 3197L2013 3196M2012 3197L2013 3198L2012 3197M2011 3198L2012 3199L2011 3198M2010 3199L2011 3200L2010 3199M508 3200L509 3201L508 3200M2009 3200L2010 3201L2009 3200M2008 3201L2009 3202L2008 3201M2007 3202L2008 3203L2007 3202M2006 3203L2007 3204L2006 3203M2005 3204L2006 3205L2005 3204M2004 3205L2005 3206L2004 3205M2003 3206L2004 3207L2003 3206z"/>
<path style="fill:#ffffff; stroke:none;" d="M3035 3206L3036 3207L3035 3206z"/>
<path style="fill:#b0b0b0; stroke:none;" d="M2002 3207L2003 3208L2002 3207M2001 3208L2002 3209L2001 3208M2000 3209L2001 3210L2000 3209z"/>
<path style="fill:#ffffff; stroke:none;" d="M3036 3209L3037 3210L3036 3209z"/>
<path style="fill:#b0b0b0; stroke:none;" d="M1999 3210L2000 3211L1999 3210M1998 3211L1999 3212L1998 3211M1997 3212L1998 3213L1997 3212z"/>
<path style="fill:#ffffff; stroke:none;" d="M3037 3212L3038 3213L3037 3212z"/>
<path style="fill:#b0b0b0; stroke:none;" d="M1996 3213L1997 3214L1996 3213M1995 3214L1996 3215L1995 3214M1994 3215L1995 3216L1994 3215z"/>
<path style="fill:#ffffff; stroke:none;" d="M3038 3215L3039 3216L3038 3215z"/>
<path style="fill:#b0b0b0; stroke:none;" d="M503 3216L504 3217L503 3216M1993 3216L1994 3217L1993 3216M1992 3217L1993 3218L1992 3217M1991 3218L1992 3219L1991 3218z"/>
<path style="fill:#7f7f7f; stroke:none;" d="M3039 3218L3040 3219L3039 3218z"/>
<path style="fill:#b0b0b0; stroke:none;" d="M1990 3219L1991 3220L1990 3219M1989 3220L1990 3221L1989 3220M1988 3221L1989 3222L1988 3221z"/>
<path style="fill:#7f7f7f; stroke:none;" d="M3040 3221L3041 3222L3040 3221z"/>
<path style="fill:#b0b0b0; stroke:none;" d="M1987 3222L1988 3223L1987 3222z"/>
<path style="fill:#ffffff; stroke:none;" d="M2830 3222L2831 3223L2830 3222z"/>
<path style="fill:#b0b0b0; stroke:none;" d="M1986 3223L1987 3224L1986 3223M1985 3224L1986 3225L1985 3224z"/>
<path style="fill:#7f7f7f; stroke:none;" d="M3041 3224L3042 3225L3041 3224z"/>
<path style="fill:#b0b0b0; stroke:none;" d="M1984 3225L1985 3226L1984 3225z"/>
<path style="fill:#ffffff; stroke:none;" d="M2829 3225L2830 3226L2829 3225z"/>
<path style="fill:#b0b0b0; stroke:none;" d="M1983 3226L1984 3227L1983 3226M1982 3227L1983 3228L1982 3227M3042 3227L3043 3228L3042 3227M1981 3228L1982 3229L1981 3228z"/>
<path style="fill:#ffffff; stroke:none;" d="M2828 3228L2829 3229L2828 3228z"/>
<path style="fill:#b0b0b0; stroke:none;" d="M1980 3229L1981 3230L1980 3229M1979 3230L1980 3231L1979 3230M3043 3230L3044 3231L3043 3230M1978 3231L1979 3232L1978 3231z"/>
<path style="fill:#ffffff; stroke:none;" d="M2827 3231L2828 3232L2827 3231z"/>
<path style="fill:#b0b0b0; stroke:none;" d="M498 3232L499 3233L498 3232M1977 3232L1978 3233L1977 3232M1976 3233L1977 3234L1976 3233M3044 3233L3045 3234L3044 3233M1975 3234L1976 3235L1975 3234z"/>
<path style="fill:#7f7f7f; stroke:none;" d="M2826 3234L2827 3235L2826 3234z"/>
<path style="fill:#b0b0b0; stroke:none;" d="M1974 3235L1975 3236L1974 3235M1973 3236L1974 3237L1973 3236M3045 3236L3046 3237L3045 3236M1972 3237L1973 3238L1972 3237z"/>
<path style="fill:#7f7f7f; stroke:none;" d="M2825 3237L2826 3238L2825 3237z"/>
<path style="fill:#b0b0b0; stroke:none;" d="M1971 3238L1972 3239L1971 3238M1970 3239L1971 3240L1970 3239M3046 3239L3047 3240L3046 3239M1969 3240L1970 3241L1969 3240z"/>
<path style="fill:#7f7f7f; stroke:none;" d="M2824 3240L2825 3241L2824 3240z"/>
<path style="fill:#b0b0b0; stroke:none;" d="M1968 3241L1969 3242L1968 3241M1967 3242L1968 3243L1967 3242M3047 3242L3048 3243L3047 3242M1966 3243L1967 3244L1966 3243M2823 3243L2824 3244L2823 3243M1965 3244L1966 3245L1965 3244M1964 3245L1965 3246L1964 3245M1963 3246L1964 3247L1963 3246M2822 3246L2823 3247L2822 3246M1962 3247L1963 3248L1962 3247M493 3248L494 3249L493 3248M1961 3248L1962 3249L1961 3248M3049 3248L3050 3249L3049 3248M1960 3249L1961 3250L1960 3249M2821 3249L2822 3250L2821 3249M1959 3250L1960 3251L1959 3250M1958 3251L1959 3252L1958 3251M3050 3251L3051 3252L3050 3251M1957 3252L1958 3253L1957 3252M2820 3252L2821 3253L2820 3252M1956 3253L1957 3254L1956 3253z"/>
</svg>
